<svg width="302" height="120" viewBox="0 0 302 120" fill="none" xmlns="http://www.w3.org/2000/svg">
<rect x="143.289" y="12.99" width="44.7" height="44.7" rx="3.15" stroke="#C5C5C5" strokeWidth="0.9"/>
<g clipPath="url(#clip0_19402_21202)">
<path d="M177.799 45.2204C176.963 45.1444 176.203 44.8404 175.519 44.3084C175.139 43.9284 174.607 43.7004 173.999 43.7004C173.467 43.7004 172.859 43.9284 172.479 44.3084C171.795 44.9164 170.959 45.1444 170.123 45.1444C169.211 45.1444 168.299 44.8404 167.615 44.3084C166.703 43.4724 165.335 43.4724 164.499 44.3084C163.815 44.9164 162.903 45.2204 161.915 45.2204C161.003 45.2204 160.167 44.9164 159.483 44.3084C159.027 43.9284 158.495 43.7004 157.963 43.7004C157.355 43.7004 156.671 43.9284 156.215 44.3084C155.455 44.9164 154.467 45.2204 153.555 45.1444V43.7004C154.163 43.7004 154.847 43.4724 155.303 43.0164C156.063 42.4084 156.975 42.1044 157.887 42.1804C158.799 42.1804 159.711 42.4844 160.395 43.0924C161.307 43.9284 162.675 43.9284 163.587 43.0924C165.031 41.8764 167.159 41.8764 168.527 43.0924C169.439 43.9284 170.807 43.9284 171.643 43.0924C172.327 42.4844 173.239 42.1804 174.151 42.1804C174.987 42.1804 175.823 42.4844 176.431 43.0924C176.887 43.4724 177.039 43.7004 177.799 43.7004V45.2204Z" fill="#C5C5C5"/>
<path d="M155.075 41.5724C155.531 41.1924 155.987 40.9644 156.519 40.8124V39.1404C156.519 38.6844 156.823 38.3044 157.279 38.3044H176.279L173.543 40.6604H173.695C174.303 40.6604 174.911 40.8124 175.367 41.0404L177.267 39.3684L177.419 39.2164C177.951 38.5324 177.799 37.6204 177.115 37.0884C176.963 36.9364 176.583 36.8604 176.279 36.8604H157.279C155.987 36.8604 154.999 37.8484 154.999 39.1404L155.075 41.5724Z" fill="#C5C5C5"/>
<path d="M163.283 36.0236H158.723C157.887 36.0236 157.203 35.3396 157.203 34.5036C157.203 34.1996 157.279 33.8956 157.507 33.5916L160.623 29.1836C161.079 28.4996 162.067 28.3476 162.751 28.8036C163.131 29.1076 163.359 29.5636 163.359 30.0196V36.0236H163.283Z" fill="#C5C5C5"/>
<path d="M170.427 36.0239H164.119V26.5239C164.119 25.6879 164.803 25.0039 165.639 25.0039C166.171 25.0039 166.627 25.3079 166.931 25.7639L171.719 33.6679C172.175 34.4279 171.871 35.3399 171.187 35.7199C170.959 35.8719 170.655 35.9479 170.427 36.0239Z" fill="#C5C5C5"/>
</g>
<rect x="193.449" y="12.99" width="44.7" height="44.7" rx="3.15" stroke="#C5C5C5" strokeWidth="0.9"/>
<g clipPath="url(#clip1_19402_21202)">
<path d="M227.959 45.2204C227.123 45.1444 226.363 44.8404 225.679 44.3084C225.299 43.9284 224.767 43.7004 224.159 43.7004C223.627 43.7004 223.019 43.9284 222.639 44.3084C221.955 44.9164 221.119 45.1444 220.283 45.1444C219.371 45.1444 218.459 44.8404 217.775 44.3084C216.863 43.4724 215.495 43.4724 214.659 44.3084C213.975 44.9164 213.063 45.2204 212.075 45.2204C211.163 45.2204 210.327 44.9164 209.643 44.3084C209.187 43.9284 208.655 43.7004 208.123 43.7004C207.515 43.7004 206.831 43.9284 206.375 44.3084C205.615 44.9164 204.627 45.2204 203.715 45.1444V43.7004C204.323 43.7004 205.007 43.4724 205.463 43.0164C206.223 42.4084 207.135 42.1044 208.047 42.1804C208.959 42.1804 209.871 42.4844 210.555 43.0924C211.467 43.9284 212.835 43.9284 213.747 43.0924C215.191 41.8764 217.319 41.8764 218.687 43.0924C219.599 43.9284 220.967 43.9284 221.803 43.0924C222.487 42.4844 223.399 42.1804 224.311 42.1804C225.147 42.1804 225.983 42.4844 226.591 43.0924C227.047 43.4724 227.199 43.7004 227.959 43.7004V45.2204Z" fill="#C5C5C5"/>
<path d="M205.235 41.5724C205.691 41.1924 206.147 40.9644 206.679 40.8124V39.1404C206.679 38.6844 206.983 38.3044 207.439 38.3044H226.439L223.703 40.6604H223.855C224.463 40.6604 225.071 40.8124 225.527 41.0404L227.427 39.3684L227.579 39.2164C228.111 38.5324 227.959 37.6204 227.275 37.0884C227.123 36.9364 226.743 36.8604 226.439 36.8604H207.439C206.147 36.8604 205.159 37.8484 205.159 39.1404L205.235 41.5724Z" fill="#C5C5C5"/>
<path d="M213.443 36.0236H208.883C208.047 36.0236 207.363 35.3396 207.363 34.5036C207.363 34.1996 207.439 33.8956 207.667 33.5916L210.783 29.1836C211.239 28.4996 212.227 28.3476 212.911 28.8036C213.291 29.1076 213.519 29.5636 213.519 30.0196V36.0236H213.443Z" fill="#C5C5C5"/>
<path d="M220.587 36.0239H214.279V26.5239C214.279 25.6879 214.963 25.0039 215.799 25.0039C216.331 25.0039 216.787 25.3079 217.091 25.7639L221.879 33.6679C222.335 34.4279 222.031 35.3399 221.347 35.7199C221.119 35.8719 220.815 35.9479 220.587 36.0239Z" fill="#C5C5C5"/>
</g>
<rect x="93.1287" y="63.1502" width="44.7" height="44.7" rx="3.15" stroke="#C5C5C5" strokeWidth="0.9"/>
<g clipPath="url(#clip2_19402_21202)">
<path d="M127.639 95.3806C126.803 95.3046 126.043 95.0006 125.359 94.4686C124.979 94.0886 124.447 93.8606 123.839 93.8606C123.307 93.8606 122.699 94.0886 122.319 94.4686C121.635 95.0766 120.799 95.3046 119.963 95.3046C119.051 95.3046 118.139 95.0006 117.455 94.4686C116.543 93.6326 115.175 93.6326 114.339 94.4686C113.655 95.0766 112.743 95.3806 111.755 95.3806C110.843 95.3806 110.007 95.0766 109.323 94.4686C108.867 94.0886 108.335 93.8606 107.803 93.8606C107.195 93.8606 106.511 94.0886 106.055 94.4686C105.295 95.0766 104.307 95.3806 103.395 95.3046V93.8606C104.003 93.8606 104.687 93.6326 105.143 93.1766C105.903 92.5686 106.815 92.2646 107.727 92.3406C108.639 92.3406 109.551 92.6446 110.235 93.2526C111.147 94.0886 112.515 94.0886 113.427 93.2526C114.871 92.0366 116.999 92.0366 118.367 93.2526C119.279 94.0886 120.647 94.0886 121.483 93.2526C122.167 92.6446 123.079 92.3406 123.991 92.3406C124.827 92.3406 125.663 92.6446 126.271 93.2526C126.727 93.6326 126.879 93.8606 127.639 93.8606V95.3806Z" fill="#C5C5C5"/>
<path d="M104.915 91.7325C105.371 91.3525 105.827 91.1245 106.359 90.9725V89.3005C106.359 88.8445 106.663 88.4645 107.119 88.4645H126.119L123.383 90.8205H123.535C124.143 90.8205 124.751 90.9725 125.207 91.2005L127.107 89.5285L127.259 89.3765C127.791 88.6925 127.639 87.7805 126.955 87.2485C126.803 87.0965 126.423 87.0205 126.119 87.0205H107.119C105.827 87.0205 104.839 88.0085 104.839 89.3005L104.915 91.7325Z" fill="#C5C5C5"/>
<path d="M113.123 86.1838H108.563C107.727 86.1838 107.043 85.4998 107.043 84.6638C107.043 84.3598 107.119 84.0558 107.347 83.7518L110.463 79.3438C110.919 78.6598 111.907 78.5078 112.591 78.9638C112.971 79.2678 113.199 79.7238 113.199 80.1798V86.1838H113.123Z" fill="#C5C5C5"/>
<path d="M120.267 86.1841H113.959V76.6841C113.959 75.8481 114.643 75.1641 115.479 75.1641C116.011 75.1641 116.467 75.4681 116.771 75.9241L121.559 83.8281C122.015 84.5881 121.711 85.5001 121.027 85.8801C120.799 86.0321 120.495 86.1081 120.267 86.1841Z" fill="#C5C5C5"/>
</g>
<rect x="143.289" y="63.1502" width="44.7" height="44.7" rx="3.15" stroke="#C5C5C5" strokeWidth="0.9"/>
<g clipPath="url(#clip3_19402_21202)">
<path d="M177.799 95.3806C176.963 95.3046 176.203 95.0006 175.519 94.4686C175.139 94.0886 174.607 93.8606 173.999 93.8606C173.467 93.8606 172.859 94.0886 172.479 94.4686C171.795 95.0766 170.959 95.3046 170.123 95.3046C169.211 95.3046 168.299 95.0006 167.615 94.4686C166.703 93.6326 165.335 93.6326 164.499 94.4686C163.815 95.0766 162.903 95.3806 161.915 95.3806C161.003 95.3806 160.167 95.0766 159.483 94.4686C159.027 94.0886 158.495 93.8606 157.963 93.8606C157.355 93.8606 156.671 94.0886 156.215 94.4686C155.455 95.0766 154.467 95.3806 153.555 95.3046V93.8606C154.163 93.8606 154.847 93.6326 155.303 93.1766C156.063 92.5686 156.975 92.2646 157.887 92.3406C158.799 92.3406 159.711 92.6446 160.395 93.2526C161.307 94.0886 162.675 94.0886 163.587 93.2526C165.031 92.0366 167.159 92.0366 168.527 93.2526C169.439 94.0886 170.807 94.0886 171.643 93.2526C172.327 92.6446 173.239 92.3406 174.151 92.3406C174.987 92.3406 175.823 92.6446 176.431 93.2526C176.887 93.6326 177.039 93.8606 177.799 93.8606V95.3806Z" fill="#C5C5C5"/>
<path d="M155.075 91.7325C155.531 91.3525 155.987 91.1245 156.519 90.9725V89.3005C156.519 88.8445 156.823 88.4645 157.279 88.4645H176.279L173.543 90.8205H173.695C174.303 90.8205 174.911 90.9725 175.367 91.2005L177.267 89.5285L177.419 89.3765C177.951 88.6925 177.799 87.7805 177.115 87.2485C176.963 87.0965 176.583 87.0205 176.279 87.0205H157.279C155.987 87.0205 154.999 88.0085 154.999 89.3005L155.075 91.7325Z" fill="#C5C5C5"/>
<path d="M163.283 86.1838H158.723C157.887 86.1838 157.203 85.4998 157.203 84.6638C157.203 84.3598 157.279 84.0558 157.507 83.7518L160.623 79.3438C161.079 78.6598 162.067 78.5078 162.751 78.9638C163.131 79.2678 163.359 79.7238 163.359 80.1798V86.1838H163.283Z" fill="#C5C5C5"/>
<path d="M170.427 86.1841H164.119V76.6841C164.119 75.8481 164.803 75.1641 165.639 75.1641C166.171 75.1641 166.627 75.4681 166.931 75.9241L171.719 83.8281C172.175 84.5881 171.871 85.5001 171.187 85.8801C170.959 86.0321 170.655 86.1081 170.427 86.1841Z" fill="#C5C5C5"/>
</g>
<rect x="193.449" y="63.1502" width="44.7" height="44.7" rx="3.15" stroke="#C5C5C5" strokeWidth="0.9"/>
<g clipPath="url(#clip4_19402_21202)">
<path d="M227.959 95.3806C227.123 95.3046 226.363 95.0006 225.679 94.4686C225.299 94.0886 224.767 93.8606 224.159 93.8606C223.627 93.8606 223.019 94.0886 222.639 94.4686C221.955 95.0766 221.119 95.3046 220.283 95.3046C219.371 95.3046 218.459 95.0006 217.775 94.4686C216.863 93.6326 215.495 93.6326 214.659 94.4686C213.975 95.0766 213.063 95.3806 212.075 95.3806C211.163 95.3806 210.327 95.0766 209.643 94.4686C209.187 94.0886 208.655 93.8606 208.123 93.8606C207.515 93.8606 206.831 94.0886 206.375 94.4686C205.615 95.0766 204.627 95.3806 203.715 95.3046V93.8606C204.323 93.8606 205.007 93.6326 205.463 93.1766C206.223 92.5686 207.135 92.2646 208.047 92.3406C208.959 92.3406 209.871 92.6446 210.555 93.2526C211.467 94.0886 212.835 94.0886 213.747 93.2526C215.191 92.0366 217.319 92.0366 218.687 93.2526C219.599 94.0886 220.967 94.0886 221.803 93.2526C222.487 92.6446 223.399 92.3406 224.311 92.3406C225.147 92.3406 225.983 92.6446 226.591 93.2526C227.047 93.6326 227.199 93.8606 227.959 93.8606V95.3806Z" fill="#C5C5C5"/>
<path d="M205.235 91.7325C205.691 91.3525 206.147 91.1245 206.679 90.9725V89.3005C206.679 88.8445 206.983 88.4645 207.439 88.4645H226.439L223.703 90.8205H223.855C224.463 90.8205 225.071 90.9725 225.527 91.2005L227.427 89.5285L227.579 89.3765C228.111 88.6925 227.959 87.7805 227.275 87.2485C227.123 87.0965 226.743 87.0205 226.439 87.0205H207.439C206.147 87.0205 205.159 88.0085 205.159 89.3005L205.235 91.7325Z" fill="#C5C5C5"/>
<path d="M213.443 86.1838H208.883C208.047 86.1838 207.363 85.4998 207.363 84.6638C207.363 84.3598 207.439 84.0558 207.667 83.7518L210.783 79.3438C211.239 78.6598 212.227 78.5078 212.911 78.9638C213.291 79.2678 213.519 79.7238 213.519 80.1798V86.1838H213.443Z" fill="#C5C5C5"/>
<path d="M220.587 86.1841H214.279V76.6841C214.279 75.8481 214.963 75.1641 215.799 75.1641C216.331 75.1641 216.787 75.4681 217.091 75.9241L221.879 83.8281C222.335 84.5881 222.031 85.5001 221.347 85.8801C221.119 86.0321 220.815 86.1081 220.587 86.1841Z" fill="#C5C5C5"/>
</g>
<rect x="77.7403" y="15.7651" width="62.04" height="62.04" rx="2.7" transform="rotate(-8.38185 77.7403 15.7651)" fill="white"/>
<rect x="77.7403" y="15.7651" width="62.04" height="62.04" rx="2.7" transform="rotate(-8.38185 77.7403 15.7651)" stroke="#88907B" strokeWidth="1.8"/>
<g clipPath="url(#clip5_19402_21202)">
<path d="M135.401 55.2684C134.004 55.3461 132.677 55.0295 131.42 54.3185C130.701 53.7843 129.769 53.5376 128.766 53.6853C127.889 53.8145 126.942 54.3382 126.407 55.0571C125.427 56.2258 124.104 56.8048 122.726 57.0079C121.222 57.2295 119.644 56.9498 118.387 56.2388C116.681 55.0819 114.425 55.4143 113.25 56.9958C112.269 58.1645 110.84 58.8873 109.21 59.1274C107.707 59.3489 106.254 59.0508 104.979 58.2145C104.135 57.6987 103.202 57.452 102.325 57.5812C101.322 57.7289 100.25 58.2711 99.5903 59.0084C98.4849 60.1956 96.9297 60.9369 95.4075 61.0331L95.0566 58.6522C96.0592 58.5044 97.1316 57.9623 97.7727 57.0997C98.8781 55.9125 100.308 55.1897 101.83 55.0934C103.334 54.8719 104.912 55.1515 106.187 55.9879C107.894 57.1447 110.15 56.8124 111.45 55.2124C113.536 52.8565 117.045 52.3395 119.596 54.0122C121.303 55.1691 123.558 54.8367 124.734 53.2552C125.714 52.0865 127.144 51.3637 128.647 51.1421C130.026 50.939 131.478 51.2371 132.628 52.0919C133.473 52.6077 133.779 52.9467 135.032 52.7621L135.401 55.2684Z" fill="#88907B"/>
<path d="M97.0455 54.7744C97.705 54.0371 98.4015 53.5503 99.2418 53.1705L98.8356 50.4136C98.7248 49.6617 99.1337 48.9613 99.8856 48.8505L131.214 44.2344L127.275 48.7839L127.526 48.7469C128.528 48.5992 129.568 48.7021 130.375 48.9673L133.102 45.7488L133.315 45.4612C134.026 44.2042 133.554 42.7373 132.297 42.0263C132.009 41.8126 131.364 41.7796 130.863 41.8535L99.5348 46.4695C97.4045 46.7834 96.0154 48.6525 96.3293 50.7828L97.0455 54.7744Z" fill="#88907B"/>
<path d="M109.232 43.6319L101.713 44.7397C100.335 44.9428 99.0409 43.9812 98.8378 42.6027C98.7639 42.1015 98.8154 41.5818 99.1175 41.0251L103.184 32.9999C103.77 31.7613 105.362 31.2706 106.601 31.8563C107.301 32.2653 107.788 32.9617 107.899 33.7136L109.357 43.6134L109.232 43.6319Z" fill="#88907B"/>
<path d="M121.011 41.8967L110.61 43.4293L108.302 27.7651C108.099 26.3866 109.06 25.0926 110.439 24.8895C111.316 24.7603 112.142 25.1507 112.754 25.8288L122.569 37.6981C123.505 38.8405 123.226 40.4181 122.19 41.2108C121.851 41.5169 121.368 41.716 121.011 41.8967Z" fill="#88907B"/>
</g>
<path d="M75.7125 22.937L78.5781 25.1611L82.0711 18.6884M89.1781 20.3779C89.3466 21.7147 89.2502 23.0716 88.8943 24.3711C88.5384 25.6706 87.93 26.8873 87.1039 27.9517C86.2778 29.0161 85.2502 29.9073 84.0796 30.5746C82.9091 31.2418 81.6186 31.6719 80.2818 31.8404C78.945 32.0089 77.5881 31.9125 76.2886 31.5566C74.9891 31.2007 73.7724 30.5923 72.708 29.7662C71.6436 28.9401 70.7524 27.9125 70.0851 26.7419C69.4179 25.5714 68.9877 24.2809 68.8192 22.9441C68.4789 20.2443 69.225 17.52 70.8934 15.3703C72.5618 13.2207 75.0158 11.8218 77.7156 11.4815C80.4153 11.1412 83.1397 11.8874 85.2893 13.5558C87.439 15.2241 88.8378 17.6781 89.1781 20.3779Z" stroke="#88907B" strokeWidth="1.71" strokeLinecap="round" strokeLinejoin="round"/>
<defs>
<clipPath id="clip0_19402_21202">
<rect width="27.36" height="27.36" fill="white" transform="translate(151.959 21.6602)"/>
</clipPath>
<clipPath id="clip1_19402_21202">
<rect width="27.36" height="27.36" fill="white" transform="translate(202.119 21.6602)"/>
</clipPath>
<clipPath id="clip2_19402_21202">
<rect width="27.36" height="27.36" fill="white" transform="translate(101.799 71.8203)"/>
</clipPath>
<clipPath id="clip3_19402_21202">
<rect width="27.36" height="27.36" fill="white" transform="translate(151.959 71.8203)"/>
</clipPath>
<clipPath id="clip4_19402_21202">
<rect width="27.36" height="27.36" fill="white" transform="translate(202.119 71.8203)"/>
</clipPath>
<clipPath id="clip5_19402_21202">
<rect width="45.6" height="45.6" fill="white" transform="translate(87.0703 22.6992) rotate(-8.38185)"/>
</clipPath>
</defs>
</svg>
