<svg width="302" height="120" viewBox="0 0 302 120" fill="none" xmlns="http://www.w3.org/2000/svg">
<g clipPath="url(#clip0_19402_21210)">
<path fillRule="evenodd" clipRule="evenodd" d="M167.797 30.5735C169.156 27.8646 172.452 26.7725 175.158 28.1298L220.262 50.7515C222.968 52.1088 224.063 55.4068 222.706 58.113L218.737 66.025C218.565 66.3696 218.304 66.6626 217.983 66.8747C217.661 67.0867 217.289 67.2102 216.904 67.2328C215.75 67.2993 214.634 67.6688 213.668 68.304C212.702 68.9393 211.921 69.8178 211.402 70.8512C210.884 71.8846 210.647 73.0363 210.716 74.1904C210.784 75.3445 211.156 76.4601 211.792 77.4249C212.004 77.7467 212.128 78.1187 212.15 78.5034C212.173 78.8881 212.094 79.2719 211.921 79.6162L207.952 87.5283C206.595 90.2345 203.297 91.3293 200.591 89.972L155.487 67.3502C154.187 66.6981 153.199 65.5561 152.741 64.1756C152.283 62.7951 152.392 61.289 153.044 59.9888L157.012 52.0767C157.184 51.7323 157.444 51.4392 157.765 51.227C158.086 51.0147 158.458 50.8908 158.842 50.8676C159.996 50.8011 161.113 50.4317 162.079 49.7964C163.045 49.1612 163.826 48.2826 164.344 47.2492C164.863 46.2158 165.099 45.0641 165.031 43.91C164.962 42.756 164.591 41.6404 163.954 40.6755C163.743 40.3536 163.62 39.9818 163.598 39.5973C163.576 39.2129 163.656 38.8295 163.829 38.4855L167.797 30.5735ZM208.493 47.303C209.013 47.5639 209.408 48.0206 209.591 48.5729C209.775 49.1251 209.731 49.7275 209.47 50.2476L208.487 52.2086C208.226 52.7287 207.769 53.1239 207.217 53.3072C206.665 53.4905 206.062 53.4469 205.542 53.1861C205.022 52.9252 204.627 52.4684 204.444 51.9162C204.26 51.364 204.304 50.7616 204.565 50.2415L205.548 48.2805C205.809 47.7604 206.266 47.3652 206.818 47.1819C207.37 46.9986 207.973 47.0422 208.493 47.303ZM204.552 60.0527C204.813 59.5326 204.857 58.9302 204.674 58.378C204.49 57.8258 204.095 57.369 203.575 57.1081C203.055 56.8473 202.452 56.8037 201.9 56.987C201.348 57.1703 200.891 57.5655 200.63 58.0856L199.647 60.0466C199.386 60.5667 199.342 61.1691 199.526 61.7213C199.709 62.2736 200.104 62.7303 200.624 62.9912C201.144 63.252 201.747 63.2956 202.299 63.1123C202.851 62.929 203.308 62.5338 203.569 62.0137L204.552 60.0527ZM198.657 66.9132C199.177 67.1741 199.572 67.6309 199.756 68.1831C199.939 68.7353 199.896 69.3377 199.635 69.8578L198.651 71.8188C198.39 72.3389 197.933 72.7341 197.381 72.9174C196.829 73.1007 196.227 73.0572 195.707 72.7963C195.186 72.5354 194.791 72.0787 194.608 71.5264C194.425 70.9742 194.468 70.3718 194.729 69.8517L195.713 67.8907C195.973 67.3706 196.43 66.9754 196.982 66.7921C197.535 66.6088 198.137 66.6524 198.657 66.9132ZM194.717 79.6629C194.978 79.1428 195.021 78.5404 194.838 77.9882C194.655 77.436 194.26 76.9792 193.739 76.7183C193.219 76.4575 192.617 76.4139 192.065 76.5972C191.512 76.7805 191.056 77.1757 190.795 77.6958L189.811 79.6568C189.55 80.1769 189.507 80.7793 189.69 81.3316C189.873 81.8838 190.269 82.3405 190.789 82.6014C191.309 82.8623 191.911 82.9058 192.463 82.7225C193.016 82.5392 193.472 82.144 193.733 81.6239L194.717 79.6629ZM172.186 51.1824C172.447 50.6623 172.904 50.2672 173.456 50.0839C174.009 49.9006 174.611 49.9441 175.131 50.205L188.858 57.0899C189.378 57.3507 189.773 57.8075 189.957 58.3597C190.14 58.9119 190.096 59.5143 189.836 60.0344C189.575 60.5545 189.118 60.9497 188.566 61.133C188.014 61.3163 187.411 61.2728 186.891 61.0119L173.164 54.127C172.644 53.8662 172.249 53.4094 172.065 52.8572C171.882 52.305 171.926 51.7025 172.186 51.1824ZM171.197 58.0491C170.677 57.7882 170.074 57.7446 169.522 57.928C168.97 58.1113 168.513 58.5064 168.252 59.0265C167.991 59.5466 167.948 60.149 168.131 60.7013C168.314 61.2535 168.71 61.7103 169.23 61.9711L177.074 65.9053C177.594 66.1662 178.196 66.2097 178.749 66.0264C179.301 65.8431 179.758 65.448 180.018 64.9279C180.279 64.4078 180.323 63.8053 180.139 63.2531C179.956 62.7009 179.561 62.2441 179.041 61.9833L171.197 58.0491Z" fill="#88907B"/>
</g>
<rect x="81.0658" y="28.8587" width="72.5246" height="72.5246" rx="6.3" transform="rotate(-12.7605 81.0658 28.8587)" fill="white"/>
<rect x="81.0658" y="28.8587" width="72.5246" height="72.5246" rx="6.3" transform="rotate(-12.7605 81.0658 28.8587)" stroke="#88907B" strokeWidth="1.8"/>
<g clipPath="url(#clip1_19402_21210)">
<path d="M151.689 69.7025C150.074 69.917 148.505 69.6674 146.983 68.9538C146.101 68.3975 144.997 68.194 143.846 68.4546C142.839 68.6826 141.786 69.3747 141.23 70.2567C140.196 71.7004 138.712 72.4902 137.13 72.8485C135.404 73.2394 133.547 73.055 132.025 72.3413C129.941 71.1501 127.352 71.7364 126.128 73.6768C125.094 75.1206 123.499 76.0867 121.629 76.5102C119.903 76.9011 118.19 76.684 116.635 75.8266C115.61 75.3029 114.505 75.0994 113.498 75.3274C112.348 75.588 111.151 76.3126 110.451 77.2272C109.273 78.7035 107.534 79.7023 105.775 79.9493L105.156 77.2166C106.307 76.956 107.504 76.2314 108.171 75.173C109.349 73.6967 110.945 72.7305 112.703 72.4834C114.429 72.0926 116.285 72.277 117.84 73.1345C119.924 74.3257 122.513 73.7394 123.881 71.7664C126.093 68.8463 130.12 67.9343 133.23 69.6492C135.314 70.8404 137.903 70.2541 139.127 68.3137C140.161 66.87 141.756 65.9038 143.482 65.5129C145.064 65.1546 146.777 65.3716 148.188 66.2617C149.214 66.7854 149.599 67.1517 151.037 66.826L151.689 69.7025Z" fill="#88907B"/>
<path d="M107.121 72.538C107.821 71.6235 108.587 70.9965 109.528 70.4809L108.812 67.3167C108.616 66.4537 109.029 65.6043 109.892 65.4089L145.849 57.2657L141.68 62.897L141.968 62.8318C143.119 62.5713 144.335 62.5983 145.295 62.8344L148.174 58.8559L148.397 58.5031C149.11 56.9806 148.432 55.3198 146.909 54.6062C146.557 54.3837 145.805 54.4027 145.23 54.533L109.273 62.6761C106.828 63.2299 105.381 65.5231 105.935 67.9681L107.121 72.538Z" fill="#88907B"/>
<path d="M120.277 58.5198L111.647 60.4742C110.065 60.8325 108.477 59.8312 108.119 58.2491C107.989 57.6738 108.002 57.0659 108.304 56.3929L112.311 46.7154C112.881 45.2255 114.686 44.5144 116.176 45.0842C117.025 45.4967 117.652 46.2619 117.847 47.1249L120.421 58.4872L120.277 58.5198Z" fill="#88907B"/>
<path d="M133.796 55.459L121.859 58.1626L117.787 40.1842C117.429 38.6021 118.43 37.0145 120.012 36.6562C121.019 36.4282 122.012 36.808 122.783 37.5407L135.232 50.4467C136.42 51.6895 136.236 53.5457 135.104 54.558C134.738 54.9434 134.195 55.2175 133.796 55.459Z" fill="#88907B"/>
</g>
<path d="M80.3356 49.0285L83.6718 51.6179L87.7384 44.0822M96.0127 46.0491C96.2089 47.6055 96.0966 49.1852 95.6823 50.6981C95.2679 52.2111 94.5597 53.6276 93.5979 54.8668C92.6361 56.106 91.4397 57.1436 90.0769 57.9204C88.7141 58.6973 87.2116 59.198 85.6553 59.3942C84.099 59.5904 82.5193 59.4781 81.0063 59.0638C79.4934 58.6494 78.0769 57.9411 76.8377 56.9794C75.5985 56.0176 74.5608 54.8212 73.784 53.4584C73.0072 52.0956 72.5064 50.5931 72.3102 49.0368C71.914 45.8937 72.7827 42.7219 74.7251 40.2192C76.6675 37.7165 79.5245 36.0879 82.6677 35.6917C85.8108 35.2955 88.9826 36.1642 91.4853 38.1066C93.988 40.049 95.6165 42.906 96.0127 46.0491Z" stroke="#C5C5C5" strokeWidth="1.99084" strokeLinecap="round" strokeLinejoin="round"/>
<defs>
<clipPath id="clip0_19402_21210">
<rect width="70.2033" height="70.2033" fill="white" transform="translate(172.235 11.9375) rotate(26.6362)"/>
</clipPath>
<clipPath id="clip1_19402_21210">
<rect width="53.089" height="53.089" fill="white" transform="translate(92.6904 36.1904) rotate(-12.7605)"/>
</clipPath>
</defs>
</svg>
