<svg width="237" height="108" viewBox="0 0 237 108" fill="none" xmlns="http://www.w3.org/2000/svg">
<g clipPath="url(#clip0_19402_21237)">
<path d="M156.733 93.0004C153.433 92.7004 150.433 91.5004 147.733 89.4004C146.233 87.9004 144.133 87.0004 141.733 87.0004C139.633 87.0004 137.233 87.9004 135.733 89.4004C133.033 91.8004 129.733 92.7004 126.433 92.7004C122.833 92.7004 119.233 91.5004 116.533 89.4004C112.933 86.1004 107.533 86.1004 104.233 89.4004C101.533 91.8004 97.9332 93.0004 94.0332 93.0004C90.4332 93.0004 87.1332 91.8004 84.4332 89.4004C82.6332 87.9004 80.5332 87.0004 78.4332 87.0004C76.0332 87.0004 73.3332 87.9004 71.5332 89.4004C68.5332 91.8004 64.6332 93.0004 61.0332 92.7004V87.0004C63.4332 87.0004 66.1332 86.1004 67.9332 84.3004C70.9332 81.9004 74.5332 80.7004 78.1332 81.0004C81.7332 81.0004 85.3332 82.2004 88.0332 84.6004C91.6332 87.9004 97.0332 87.9004 100.633 84.6004C106.333 79.8004 114.733 79.8004 120.133 84.6004C123.733 87.9004 129.133 87.9004 132.433 84.6004C135.133 82.2004 138.733 81.0004 142.333 81.0004C145.633 81.0004 148.933 82.2004 151.333 84.6004C153.133 86.1004 153.733 87.0004 156.733 87.0004V93.0004Z" fill="#88907B"/>
<path d="M67.0334 78.6C68.8334 77.1 70.6334 76.2 72.7334 75.6V69C72.7334 67.2 73.9334 65.7 75.7334 65.7H150.733L139.933 75H140.533C142.933 75 145.333 75.6 147.133 76.5L154.633 69.9L155.233 69.3C157.333 66.6 156.733 63 154.033 60.9C153.433 60.3 151.933 60 150.733 60H75.7334C70.6334 60 66.7334 63.9 66.7334 69L67.0334 78.6Z" fill="#88907B"/>
<path d="M99.4336 56.6998H81.4336C78.1336 56.6998 75.4336 53.9998 75.4336 50.6998C75.4336 49.4998 75.7336 48.2998 76.6336 47.0998L88.9336 29.6998C90.7336 26.9998 94.6336 26.3998 97.3336 28.1998C98.8336 29.3998 99.7336 31.1998 99.7336 32.9998V56.6998H99.4336Z" fill="#88907B"/>
<path d="M127.633 56.7002H102.733V19.2002C102.733 15.9002 105.433 13.2002 108.733 13.2002C110.833 13.2002 112.633 14.4002 113.833 16.2002L132.733 47.4002C134.533 50.4002 133.333 54.0002 130.633 55.5002C129.733 56.1002 128.533 56.4002 127.633 56.7002Z" fill="#88907B"/>
</g>
<path d="M199.934 7.2002C207.363 7.20041 213.433 13.4191 213.434 21.1494C213.434 28.88 207.363 35.0994 199.934 35.0996C192.504 35.0996 186.434 28.8801 186.434 21.1494C186.434 13.4189 192.504 7.2002 199.934 7.2002Z" stroke="#88907B" strokeWidth="1.8"/>
<path d="M217.934 34.2002L221.161 30.973C221.864 30.27 223.003 30.27 223.706 30.973L225.661 32.9274C226.364 33.6303 227.503 33.6303 228.206 32.9274L230.161 30.973C230.864 30.27 232.003 30.27 232.706 30.973L235.934 34.2002" stroke="#C5C5C5" strokeWidth="1.8"/>
<path d="M41.2334 25.2002L44.4606 21.973C45.1636 21.27 46.3032 21.27 47.0062 21.973L48.9606 23.9274C49.6636 24.6303 50.8032 24.6303 51.5062 23.9274L53.4606 21.973C54.1636 21.27 55.3032 21.27 56.0062 21.973L59.2334 25.2002" stroke="#C5C5C5" strokeWidth="1.8"/>
<path d="M20.5332 35.0996L23.7604 31.8724C24.4634 31.1695 25.6031 31.1695 26.306 31.8724L28.2604 33.8268C28.9634 34.5298 30.1031 34.5298 30.806 33.8268L32.7604 31.8724C33.4634 31.1695 34.6031 31.1695 35.306 31.8724L38.5332 35.0996" stroke="#C5C5C5" strokeWidth="1.8"/>
<path d="M0.733398 25.2002L3.96061 21.973C4.66355 21.27 5.80325 21.27 6.50619 21.973L8.46061 23.9274C9.16355 24.6303 10.3032 24.6303 11.0062 23.9274L12.9606 21.973C13.6636 21.27 14.8032 21.27 15.5062 21.973L18.7334 25.2002" stroke="#C5C5C5" strokeWidth="1.8"/>
<path d="M169.333 46.7998L172.56 43.5726C173.263 42.8697 174.403 42.8697 175.106 43.5726L177.06 45.527C177.763 46.23 178.903 46.23 179.606 45.527L181.56 43.5726C182.263 42.8697 183.403 42.8697 184.106 43.5726L187.333 46.7998" stroke="#C5C5C5" strokeWidth="1.8"/>
<defs>
<clipPath id="clip0_19402_21237">
<rect width="108" height="108" fill="white" transform="translate(54.7334)"/>
</clipPath>
</defs>
</svg>
