<svg width="143" height="92" viewBox="0 0 143 92" fill="none" xmlns="http://www.w3.org/2000/svg">
<g clipPath="url(#clip0_19402_21235)">
<path d="M21.3612 7.95979C28.9228 10.7662 36.8722 18.1794 44.2473 27.3863C50.7685 35.5273 56.7687 45.0986 61.2108 54.2585L57.9852 55.9807C56.5187 52.9498 54.8659 49.8606 53.0783 46.791L54.4863 45.7891L52.8982 43.5568C51.999 44.2329 51.0636 44.8501 50.1088 45.4963C50.7141 51.6221 53.6723 58.5413 57.7324 64.405C56.9044 64.8298 56.0853 65.4852 55.5713 66.1162C51.1904 59.8718 48.0119 52.4948 47.3783 45.6164C41.3125 41.828 38.8067 36.3806 36.5976 29.4558C27.9585 26.4445 22.4422 20.4237 19.635 15.3424C18.4718 17.2557 17.3221 19.1741 16.5139 21.1111C15.4012 23.777 14.9138 26.3956 15.7247 29.2231C17.1923 34.3394 21.2377 37.4161 24.2703 40.4213C25.7865 41.9237 27.1407 43.4529 27.4165 45.4815C27.6923 47.5101 26.6729 49.6132 24.4032 51.7657C21.9832 54.0605 18.8214 55.4587 16.5702 57.0086C15.9695 57.4222 15.4425 57.8407 15.0016 58.2664C13.9307 57.8271 12.7399 57.7756 11.6351 58.1208C11.6652 58.0688 11.6947 58.0164 11.7261 57.9653C12.5455 56.6342 13.7356 55.6347 15.0168 54.7524C17.5796 52.9881 20.5919 51.6048 22.5184 49.7777C24.4681 47.9286 24.8293 46.7875 24.7019 45.8501C24.5744 44.9127 23.7417 43.7536 22.3422 42.3668C19.5434 39.5932 14.8432 36.0855 13.0913 29.9779C12.072 26.4235 12.7304 23.0632 13.9853 20.056C15.9954 15.3721 18.6224 11.738 21.3611 7.95976L21.3612 7.95979ZM22.8947 10.2966L21.2754 12.5359C23.4123 17.1866 28.6245 23.7157 37.2985 26.8119L38.1423 25.7968C33.3644 20.374 28.4419 15.9516 23.9772 13.2897L25.0275 11.7763L22.8947 10.2966ZM41.1948 26.6323C40.5197 27.3073 39.8237 28.0569 39.2441 28.7571C41.3506 35.3595 43.4103 39.8599 48.6383 43.1837L50.2316 42.105C47.5718 37.9048 44.4499 33.4646 41.4629 29.7044L42.5176 28.7105L41.1948 26.6323ZM62.7178 56.5593L63.7213 58.4388L59.6935 60.5894L58.6903 58.7096L62.7178 56.5593ZM65.0119 60.8557L75.7944 81.0514C75.7806 81.0964 75.7348 81.2157 75.6014 81.3869C75.3143 81.7553 74.7077 82.2478 74.0365 82.6063C73.3654 82.9648 72.6182 83.1949 72.1525 83.2284C71.9359 83.2441 71.8115 83.2155 71.7664 83.2017L66.1031 72.5943C66.8677 70.8891 66.8701 68.8608 65.9275 67.0956C64.9851 65.3305 63.2985 64.2033 61.456 63.89L60.9841 63.0064L65.0119 60.8557ZM61.1185 66.5947C62.1045 66.7929 62.9944 67.4178 63.5108 68.3852C64.4289 70.1049 63.7914 72.2039 62.0717 73.1219C60.352 74.04 58.2531 73.402 57.3351 71.6823C57.2815 71.5821 57.2339 71.4803 57.1907 71.3776L54.4769 71.3556L54.4285 77.2907L51.6895 77.2685L51.7597 68.5939L57.2052 68.6382C57.5085 67.9407 58.0433 67.3365 58.7746 66.946C59.5269 66.5444 60.3517 66.4405 61.1185 66.5947ZM13.539 60.6744C14.7929 60.9158 15.5905 62.0939 15.349 63.3478C15.2005 64.1189 14.6969 64.7166 14.0399 65.007C13.9846 65.6848 13.9557 66.5255 14.045 67.3405C14.2714 68.9438 14.7758 70.1409 16.2221 70.1134C17.3512 69.9127 17.6696 68.8451 17.789 67.9081L15.9067 67.5126L21.0708 62.1804C21.1573 63.2603 20.8983 67.4946 20.1719 69.758C19.9468 70.4236 19.5908 71.1532 18.9553 71.7658C18.32 72.3784 17.3753 72.8204 16.3024 72.8519C14.677 72.8997 13.2917 72.1481 12.514 71.0917C11.7364 70.0353 11.4487 68.7982 11.3215 67.6391C11.1867 66.4098 11.2503 65.2257 11.3396 64.3741C10.9221 63.8702 10.7297 63.1893 10.8655 62.4845C11.1069 61.2307 12.285 60.433 13.5388 60.6745L13.539 60.6744Z" fill="#88907B"/>
</g>
<path d="M81.1722 9.35743L135.394 20.7151C138.799 21.4286 140.982 24.7673 140.268 28.1726L128.911 82.3943C128.197 85.7994 124.858 87.9817 121.453 87.2687L67.2315 75.9111C63.8261 75.1978 61.644 71.8589 62.357 68.4535L73.7147 14.2318C74.428 10.8264 77.7667 8.64409 81.1722 9.35743Z" fill="white"/>
<path d="M81.1722 9.35743L135.394 20.7151C138.799 21.4286 140.982 24.7673 140.268 28.1726L128.911 82.3943C128.197 85.7994 124.858 87.9817 121.453 87.2687L67.2315 75.9111C63.8261 75.1978 61.644 71.8589 62.357 68.4535L73.7147 14.2318C74.428 10.8264 77.7667 8.64409 81.1722 9.35743Z" stroke="#88907B" strokeWidth="1.8"/>
<g clipPath="url(#clip1_19402_21235)">
<path d="M111.328 59.7145L92.795 55.8324L88.3082 58.2843L85.1826 54.2378L77.1655 52.5585L76.6988 54.7865C76.1039 57.6263 77.5809 60.3506 79.9971 60.9042C79.9287 62.3552 80.209 63.7376 80.8227 64.9021C81.7304 66.6243 83.3275 67.8039 85.3197 68.2212L97.5738 70.788C99.566 71.2053 101.502 70.7659 103.025 69.5509C104.055 68.7306 104.866 67.5768 105.386 66.2204C106.679 66.4671 107.976 66.0458 108.997 65.1715C109.957 64.3292 110.612 63.1944 110.862 61.9425L111.328 59.7145ZM86.05 51.3185L89.0601 54.6808L93.1982 52.8158L111.951 56.7438L112.106 56.0012C112.284 55.1452 112.162 54.254 111.76 53.4778C111.358 52.7015 110.7 52.0877 109.898 51.7398C110.399 48.9676 109.752 46.4238 108.001 44.3652C106.384 42.4527 103.968 41.1171 101.011 40.4978L94.3273 39.0977C87.9942 37.7711 82.9504 40.4717 81.6762 45.8283C80.802 45.8251 79.9533 46.1234 79.2733 46.6729C78.5933 47.2225 78.1236 47.9897 77.9433 48.8452L77.7877 49.5878L86.05 51.3185Z" fill="#88907B"/>
<path d="M123.648 37.4865L116.723 36.0361L118.245 32.8991L122.683 32.3421L122.318 29.4554L116.174 30.1065L113.662 35.3948L99.9678 32.5263L99.3455 35.497L101.086 35.8616L100.948 37.3831L101.634 37.5269C105.254 38.2852 108.26 39.9711 110.315 42.3999C111.461 43.7388 112.286 45.3219 112.726 47.0282C112.996 48.0862 113.118 49.1765 113.087 50.2679C114.292 51.4094 115.04 52.9506 115.191 54.6035C115.343 56.2564 114.887 57.9077 113.909 59.2489C114.087 60.3495 114.061 61.4733 113.832 62.5646C113.398 64.6385 112.279 66.4671 110.68 67.7138C109.689 68.4923 108.521 69.0117 107.279 69.2254C106.655 70.2571 105.856 71.1719 104.917 71.9286C104.78 72.0375 104.64 72.143 104.499 72.2433L111.498 73.7093C112.983 74.0204 113.789 73.4139 114.266 72.0603L124.354 40.7403L126.081 41.102L126.704 38.1267L123.648 37.4865Z" fill="#88907B"/>
</g>
<defs>
<clipPath id="clip0_19402_21235">
<rect width="77.9225" height="77.9225" fill="white" transform="matrix(-0.981959 -0.189095 -0.189095 0.981959 91.252 14.7344)"/>
</clipPath>
<clipPath id="clip1_19402_21235">
<rect width="48.5626" height="48.5626" fill="white" transform="translate(82.5254 19.5693) rotate(11.8305)"/>
</clipPath>
</defs>
</svg>
