<svg width="156" height="58" viewBox="0 0 156 58" fill="none" xmlns="http://www.w3.org/2000/svg">
<path d="M43.1114 32.5283C43.7116 32.5283 44.1491 32.4092 44.4235 32.1711C44.6971 31.933 44.8693 31.6201 44.9401 31.2318C45.0107 30.8439 45.046 30.4471 45.046 30.0411C45.046 29.6177 45.0107 29.2167 44.9401 28.8371C44.8693 28.4579 44.6971 28.1536 44.4235 27.9243C44.1491 27.6951 43.7116 27.5802 43.1114 27.5802C42.5102 27.5802 42.0731 27.6993 41.7991 27.9375C41.5251 28.1757 41.3529 28.4799 41.2824 28.8504C41.2115 29.2207 41.1764 29.6177 41.1764 30.0411C41.1764 30.4644 41.2115 30.8659 41.2824 31.245C41.3529 31.6245 41.5251 31.933 41.7991 32.1711C42.0731 32.4092 42.5102 32.5283 43.1114 32.5283ZM41.5474 35.5713C40.5576 35.5713 39.7715 35.3463 39.1884 34.8964C38.6052 34.4468 38.1898 33.8075 37.9425 32.9782C37.6949 32.1492 37.5716 31.1615 37.5716 30.0146C37.5716 28.8681 37.6949 27.8713 37.9425 27.0246C38.1898 26.1778 38.6052 25.5209 39.1884 25.0532C39.7715 24.586 40.5576 24.3522 41.5474 24.3522C42.2716 24.3522 42.8548 24.4537 43.297 24.6564C43.7384 24.8594 44.0829 25.0929 44.3305 25.3576C44.5779 25.6222 44.7985 25.9575 44.9933 26.363H45.046V24.3522H47.6414C48.3162 24.3522 48.8632 24.8982 48.8632 25.5718V35.3067H45.6293L45.046 33.8249H44.9933C45.0107 33.8249 44.9668 33.9134 44.8606 34.0895C44.7546 34.2659 44.5732 34.4689 44.3172 34.6981C44.0609 34.9275 43.7076 35.1306 43.2571 35.3067C42.8063 35.4828 42.2365 35.5713 41.5474 35.5713Z" fill="#88907B"/>
<path d="M55.5161 35.5712C55.3924 35.5712 55.1318 35.558 54.7341 35.5315C54.3367 35.5051 53.8859 35.4257 53.3822 35.2935C52.8786 35.1612 52.3883 34.9453 51.9111 34.6451C51.4343 34.3453 51.0406 33.9353 50.7318 33.4147C50.5929 33.1814 50.4853 32.917 50.4089 32.6215C50.2471 31.996 50.745 31.3906 51.392 31.3906H53.6607C53.6607 31.4082 53.6649 31.4963 53.674 31.655C53.6827 31.8139 53.7358 31.9903 53.8331 32.1844C53.93 32.3787 54.0981 32.5507 54.3367 32.7002C54.5753 32.8504 54.9329 32.9252 55.4102 32.9252C55.8166 32.9252 56.1126 32.8722 56.298 32.7665C56.4835 32.6606 56.6029 32.5461 56.656 32.4224C56.7088 32.2993 56.7355 32.2021 56.7355 32.1314C56.7355 31.8668 56.5851 31.655 56.2847 31.4963C55.9843 31.3376 55.5956 31.1921 55.1187 31.0597C54.6415 30.9275 54.1332 30.7779 53.5945 30.6098C53.055 30.4426 52.5475 30.2221 52.0702 29.9485C51.5933 29.6751 51.2043 29.318 50.9042 28.8768C50.6035 28.4361 50.4534 27.8712 50.4534 27.1833C50.4534 26.0546 50.8732 25.2344 51.7126 24.7224C52.5514 24.211 53.6078 23.9551 54.8801 23.9551C55.6751 23.9551 56.3997 24.0477 57.0533 24.2331C57.707 24.4182 58.2728 24.6919 58.7501 25.0532C59.2269 25.4151 59.6022 25.8649 59.8762 26.4027L60.1052 26.8551C60.4329 27.503 59.9613 28.2682 59.2342 28.2682H56.9741C56.9741 27.9685 56.921 27.7171 56.8151 27.5141C56.7088 27.3114 56.5631 27.1528 56.3776 27.0377C56.1921 26.9233 55.9886 26.8393 55.7681 26.7864C55.5468 26.7334 55.3129 26.7071 55.0656 26.7071C54.5529 26.7071 54.2174 26.791 54.0583 26.9585C53.8992 27.1263 53.8197 27.2983 53.8197 27.4744C53.8197 27.7918 53.9741 28.0432 54.2835 28.2285C54.5927 28.4137 54.99 28.577 55.4762 28.7179C55.9622 28.8594 56.4836 29.009 57.0403 29.1678C57.5968 29.3267 58.1177 29.5342 58.604 29.7897C59.0899 30.0456 59.4876 30.3809 59.7971 30.7952C60.1058 31.2099 60.2609 31.7437 60.2609 32.396C60.2609 33.084 60.0707 33.6619 59.6908 34.1292C59.3108 34.5967 58.7675 34.954 58.0606 35.2007C57.3537 35.4476 56.5056 35.5712 55.5161 35.5712Z" fill="#88907B"/>
<path d="M66.3568 35.3067C65.2967 35.3067 64.457 35.0598 63.8387 34.5657C63.2201 34.0721 62.911 33.1726 62.911 31.8668V26.5218H66.3568V32.4754H68.9013V35.3067H66.3568ZM61.3737 24.8355V24.3521C61.6918 24.3521 61.9742 24.3215 62.2219 24.2593C62.4691 24.1978 62.6858 24.0742 62.8712 23.889C63.0567 23.7037 63.1981 23.426 63.2953 23.0556C63.3922 22.6851 63.441 22.1915 63.441 21.5738H66.3568V24.3521H68.8218V24.8355C68.8218 25.9568 67.9113 26.8657 66.7881 26.8657H63.4074C62.2842 26.8657 61.3737 25.9568 61.3737 24.8355Z" fill="#88907B"/>
<path d="M76.0054 32.5283C76.6056 32.5283 77.043 32.4092 77.3175 32.1711C77.5911 31.933 77.7633 31.6201 77.8341 31.2318C77.9046 30.8439 77.94 30.4471 77.94 30.0411C77.94 29.6177 77.9046 29.2167 77.8341 28.8371C77.7633 28.4579 77.5911 28.1536 77.3175 27.9243C77.043 27.6951 76.6056 27.5802 76.0054 27.5802C75.4042 27.5802 74.9671 27.6993 74.693 27.9375C74.419 28.1757 74.2468 28.4799 74.1764 28.8504C74.1056 29.2207 74.0704 29.6177 74.0704 30.0411C74.0704 30.4644 74.1056 30.8659 74.1764 31.245C74.2468 31.6245 74.419 31.933 74.693 32.1711C74.9671 32.4092 75.4042 32.5283 76.0054 32.5283ZM74.4413 35.5713C73.4515 35.5713 72.6655 35.3463 72.0824 34.8964C71.4991 34.4468 71.0837 33.8075 70.8365 32.9782C70.5888 32.1492 70.4656 31.1615 70.4656 30.0146C70.4656 28.8681 70.5888 27.8713 70.8365 27.0246C71.0837 26.1778 71.4991 25.5209 72.0824 25.0532C72.6655 24.586 73.4515 24.3522 74.4413 24.3522C75.1656 24.3522 75.7488 24.4537 76.1909 24.6564C76.6323 24.8594 76.9769 25.0929 77.2245 25.3576C77.4719 25.6222 77.6924 25.9575 77.8873 26.363H77.94V24.3522H80.5354C81.2102 24.3522 81.7571 24.8982 81.7571 25.5718V35.3067H78.5232L77.94 33.8249H77.8873C77.9046 33.8249 77.8608 33.9134 77.7546 34.0895C77.6486 34.2659 77.4671 34.4689 77.2112 34.6981C76.9548 34.9275 76.6016 35.1306 76.1511 35.3067C75.7003 35.4828 75.1305 35.5713 74.4413 35.5713Z" fill="#88907B"/>
<path d="M83.7712 33.9949V27.2867C83.7712 26.9587 84.0375 26.6928 84.3661 26.6928H86.3635C86.9812 26.6928 87.4821 27.1927 87.4821 27.8094V35.3066H85.0852C84.3596 35.3066 83.7712 34.7194 83.7712 33.9949Z" fill="#88907B"/>
<path d="M95.1422 35.5712C94.1176 35.5712 93.1678 35.3681 92.2928 34.9626C91.4183 34.557 90.7158 33.9398 90.1858 33.1105C89.6558 32.2814 89.3907 31.2495 89.3907 30.0145C89.4258 28.7973 89.6995 27.7655 90.2122 26.9188C90.7245 26.0719 91.4137 25.4237 92.2798 24.9738C93.1454 24.5241 94.1089 24.299 95.169 24.299C96.4054 24.299 97.4354 24.5373 98.2569 25.0135C99.0783 25.4899 99.6966 26.0852 100.112 26.7997L100.385 27.2721C100.818 28.0206 100.277 28.9562 99.4112 28.9562H97.3686C97.2804 28.4448 97.0685 28.0611 96.7329 27.8052C96.3968 27.5496 95.9195 27.4215 95.3012 27.4215C94.7713 27.4215 94.3381 27.5186 94.0026 27.7125C93.6667 27.9067 93.4151 28.1715 93.2473 28.5063C93.0792 28.8416 92.9953 29.2385 92.9953 29.6971C92.9953 30.5265 93.1811 31.1878 93.5522 31.6816C93.9231 32.1757 94.5239 32.4224 95.3548 32.4224C95.8313 32.4224 96.2644 32.2901 96.6534 32.0255C97.0417 31.761 97.2804 31.3289 97.3686 30.729H99.3707C100.164 30.729 100.731 31.5163 100.458 32.2599C100.365 32.5101 100.25 32.7582 100.112 33.0046C99.6966 33.7455 99.0743 34.3586 98.2435 34.8436C97.4127 35.3285 96.3794 35.5712 95.1422 35.5712Z" fill="#88907B"/>
<path d="M29.1381 35.5712C27.8658 35.5712 26.6864 35.3191 25.6 34.8155C24.5139 34.3118 23.6416 33.5454 22.9835 32.5155C22.3253 31.486 21.9962 30.2047 21.9962 28.6711C22.0398 27.1596 22.3796 25.8782 23.0163 24.8268C23.6524 23.7752 24.5081 22.9703 25.5838 22.4117C26.6585 21.8532 27.855 21.5737 29.1713 21.5737C30.7068 21.5737 31.9858 21.8696 33.0059 22.461C34.0259 23.0526 34.7936 23.7918 35.3098 24.679L35.6489 25.2657C36.1862 26.1952 35.5143 27.3569 34.4392 27.3569H31.9028C31.7933 26.7217 31.5301 26.2453 31.1134 25.9275C30.696 25.6102 30.1034 25.4511 29.3357 25.4511C28.6775 25.4511 28.1396 25.5717 27.723 25.8124C27.306 26.0537 26.9934 26.3825 26.7852 26.7982C26.5765 27.2146 26.4722 27.7075 26.4722 28.2769C26.4722 29.3067 26.703 30.1281 27.1636 30.7412C27.6243 31.3548 28.3704 31.6611 29.4021 31.6611C29.9938 31.6611 30.5317 31.4969 31.0148 31.1683C31.4969 30.8398 31.7933 30.3033 31.9028 29.5582H34.3889C35.3745 29.5582 36.0788 30.5359 35.7385 31.4593C35.6241 31.77 35.4812 32.0782 35.3098 32.384C34.7936 33.3041 34.0209 34.0656 32.9893 34.6677C31.9576 35.2698 30.6744 35.5712 29.1381 35.5712Z" fill="#88907B"/>
<path d="M106.42 33.7021V32.1316H116.571V35.2803H108.001C107.128 35.2803 106.42 34.5737 106.42 33.7021ZM106.42 33.7224V21.5737H108.492C109.397 21.5737 110.131 22.306 110.131 23.2092V35.2803H107.98C107.118 35.2803 106.42 34.5828 106.42 33.7224Z" fill="#88907B"/>
<path d="M123.542 32.5283C124.143 32.5283 124.58 32.4092 124.854 32.1711C125.128 31.9332 125.3 31.6202 125.371 31.2319C125.441 30.8439 125.477 30.4473 125.477 30.0413C125.477 29.6178 125.441 29.2169 125.371 28.8372C125.3 28.4579 125.128 28.1536 124.854 27.9244C124.58 27.6953 124.143 27.5802 123.542 27.5802C122.941 27.5802 122.504 27.6993 122.23 27.9375C121.956 28.1757 121.784 28.4799 121.713 28.8506C121.642 29.2209 121.607 29.6178 121.607 30.0413C121.607 30.4646 121.642 30.8659 121.713 31.245C121.784 31.6245 121.956 31.9332 122.23 32.1711C122.504 32.4092 122.941 32.5283 123.542 32.5283ZM121.978 35.5713C120.989 35.5713 120.202 35.3463 119.619 34.8963C119.036 34.447 118.621 33.8077 118.374 32.9784C118.126 32.1494 118.002 31.1615 118.002 30.0146C118.002 28.8683 118.126 27.8714 118.374 27.0247C118.621 26.178 119.036 25.5211 119.619 25.0534C120.202 24.586 120.989 24.3522 121.978 24.3522C122.703 24.3522 123.286 24.4539 123.728 24.6564C124.169 24.8595 124.514 25.0931 124.761 25.3576C125.009 25.6222 125.23 25.9575 125.424 26.3632H125.477V24.3522H127.344C128.421 24.3522 129.294 25.2238 129.294 26.2991V35.3067H126.06L125.477 33.8251H125.424C125.441 33.8251 125.398 33.9135 125.292 34.0897C125.186 34.2661 125.004 34.4689 124.748 34.6981C124.492 34.9277 124.139 35.1306 123.688 35.3067C123.237 35.4828 122.668 35.5713 121.978 35.5713Z" fill="#88907B"/>
<path d="M134.675 32.7665V28.7181L138.121 24.2727H142.573L134.675 32.7665ZM137.14 27.0511L142.653 35.2803H138.279L134.436 29.6442L137.14 27.0511ZM134.728 35.3066H131.017V21.5737H133.615C134.23 21.5737 134.728 22.071 134.728 22.6841V35.3066Z" fill="#88907B"/>
<path d="M150.313 28.8239C150.295 28.5063 150.234 28.2418 150.128 28.0302C150.022 27.8184 149.845 27.6332 149.598 27.4745C149.35 27.3156 148.988 27.2362 148.511 27.2362C148.034 27.2362 147.663 27.3156 147.398 27.4745C147.133 27.6332 146.951 27.8184 146.854 28.0302C146.757 28.2418 146.69 28.5063 146.655 28.8239H150.313ZM148.723 35.5712C147.398 35.5712 146.328 35.3067 145.516 34.7775C144.703 34.2484 144.106 33.5648 143.727 32.7268C143.346 31.8891 143.139 31.0113 143.104 30.0939C143.068 28.8946 143.28 27.8581 143.74 26.985C144.199 26.1116 144.848 25.4417 145.688 24.974C146.527 24.507 147.495 24.2728 148.59 24.2728C149.633 24.2728 150.565 24.4889 151.387 24.9209C152.209 25.3537 152.853 25.9662 153.322 26.7602C153.79 27.5538 154.024 28.5063 154.024 29.6179V30.3058H146.602C146.602 31.0821 146.792 31.6466 147.172 31.9993C147.552 32.3522 148.042 32.5283 148.643 32.5283C149.156 32.5283 149.567 32.4092 149.876 32.171C150.185 31.9332 150.366 31.6289 150.419 31.2583H152.074C153.173 31.2583 153.89 32.4575 153.321 33.3948C153.317 33.4015 153.313 33.4081 153.308 33.4148C152.902 34.0763 152.319 34.6014 151.559 34.989C150.799 35.3771 149.854 35.5712 148.723 35.5712Z" fill="#88907B"/>
<path d="M87.6488 21.3134V25.5631L87.5941 25.4982C87.2347 25.1019 86.7214 24.8765 86.1876 24.8798L85.794 24.8833L84.6476 24.8901C84.2574 24.8935 83.9393 24.5792 83.9393 24.1898V24.0599L87.1936 20.555H87.1971C87.4675 20.7018 87.6488 20.9854 87.6488 21.3134Z" fill="#88907B"/>
<path d="M41.5475 37.5435C40.115 37.5435 38.9148 37.1779 37.9804 36.4571C37.0655 35.7517 36.4156 34.7704 36.0489 33.5409C35.7484 32.5347 35.5959 31.3479 35.5959 30.0145C35.5959 28.685 35.7473 27.4931 36.0461 26.4718C36.4074 25.2344 37.0484 24.2396 37.951 23.5157C38.8918 22.7618 40.1017 22.3798 41.5475 22.3798C42.4547 22.3798 43.2205 22.5049 43.8783 22.7612C44.2055 22.5214 44.6093 22.3798 45.0461 22.3798H47.6414C49.4045 22.3798 50.839 23.8118 50.839 25.5719V35.3066C50.839 36.3959 49.9544 37.2789 48.8633 37.2789H45.6293C45.2126 37.2789 44.8176 37.1483 44.4917 36.9192C44.3296 36.9979 44.1586 37.0724 43.978 37.143C43.288 37.4126 42.4931 37.5435 41.5475 37.5435Z" fill="#F1EDE4"/>
<path d="M55.5161 37.5435C55.3986 37.5435 55.1885 37.5385 54.6023 37.4994C54.0751 37.4644 53.5114 37.3668 52.8796 37.2008C52.1828 37.0179 51.5026 36.7194 50.8578 36.3137C50.1147 35.8465 49.5001 35.2091 49.0318 34.4196C48.7996 34.0295 48.619 33.5897 48.496 33.1148C48.2671 32.23 48.4592 31.3058 49.0233 30.5789C49.1387 30.4302 49.2658 30.2943 49.403 30.1721C49.3574 30.1107 49.3129 30.0482 49.2697 29.9847C48.7448 29.2154 48.4777 28.2721 48.4777 27.1833C48.4777 25.3782 49.2609 23.9065 50.6827 23.0394C51.8325 22.3383 53.2447 21.9829 54.8801 21.9829C55.8543 21.9829 56.7672 22.1016 57.5932 22.3357C58.4805 22.5871 59.2716 22.9728 59.9439 23.4818C60.659 24.0243 61.2282 24.7057 61.6372 25.5084L61.8688 25.966C62.3343 26.8862 62.2892 27.9599 61.7479 28.838C61.6073 29.0664 61.4396 29.2709 61.2503 29.4484C61.2949 29.5034 61.3385 29.5594 61.381 29.6162C61.9494 30.3795 62.2366 31.3139 62.2366 32.396C62.2366 33.5452 61.8961 34.5464 61.2248 35.3721C60.6124 36.1256 59.7672 36.6944 58.7128 37.0624C57.799 37.3816 56.7235 37.5435 55.5161 37.5435Z" fill="#F1EDE4"/>
<path d="M66.3568 37.279C64.841 37.279 63.5784 36.8841 62.604 36.1054C61.4971 35.2222 60.9353 33.7958 60.9353 31.8668V27.9891C59.9871 27.2488 59.398 26.0994 59.398 24.8355V24.3522C59.398 23.2629 60.2825 22.3799 61.3737 22.3799C61.389 22.3799 61.4038 22.3798 61.4181 22.3796C61.4415 22.2219 61.4653 21.965 61.4653 21.5738C61.4653 20.4845 62.3498 19.6015 63.441 19.6015H66.3568C67.448 19.6015 68.3325 20.4845 68.3325 21.5738V22.3799H68.8218C69.9129 22.3799 70.7975 23.2629 70.7975 24.3522V24.8355C70.7975 26.4964 69.7789 27.9242 68.3325 28.5291V30.5032H68.9013C69.9925 30.5032 70.877 31.3862 70.877 32.4755V35.3067C70.877 36.396 69.9925 37.279 68.9013 37.279H66.3568Z" fill="#F1EDE4"/>
<path d="M74.4413 37.5435C73.0088 37.5435 71.8085 37.1779 70.8741 36.4571C69.9593 35.7517 69.3094 34.7704 68.9427 33.5409C68.6422 32.5347 68.4897 31.3479 68.4897 30.0145C68.4897 28.685 68.6411 27.4931 68.9398 26.4718C69.3012 25.2344 69.9422 24.2396 70.8448 23.5157C71.7856 22.7618 72.9954 22.3798 74.4413 22.3798C75.3485 22.3798 76.1143 22.5049 76.7721 22.7612C77.0993 22.5214 77.5031 22.3798 77.9399 22.3798H80.5352C82.2983 22.3798 83.7327 23.8118 83.7327 25.5719V35.3066C83.7327 36.3959 82.8482 37.2789 81.757 37.2789H78.523C78.1064 37.2789 77.7114 37.1483 77.3854 36.9192C77.2234 36.9979 77.0523 37.0724 76.8717 37.143C76.1817 37.4126 75.3869 37.5435 74.4413 37.5435Z" fill="#F1EDE4"/>
<path d="M85.0852 37.279C83.2713 37.279 81.7955 35.8058 81.7955 33.9949V27.2867C81.7955 25.8717 82.9486 24.7205 84.3661 24.7205H86.3634C88.0696 24.7205 89.4577 26.1062 89.4577 27.8095V35.3067C89.4577 36.396 88.5732 37.279 87.4821 37.279H85.0852Z" fill="#F1EDE4"/>
<path d="M95.0911 30.4289C95.1411 30.439 95.2257 30.4501 95.3547 30.4501C95.3767 30.4501 95.3959 30.4491 95.4132 30.4468C95.4134 30.4454 95.4136 30.444 95.4137 30.4426C95.4452 30.2287 95.5104 30.0269 95.6033 29.8425C95.5334 29.7037 95.479 29.5549 95.4431 29.3984C95.4034 29.3957 95.3563 29.3938 95.3012 29.3938C95.1395 29.3938 95.0456 29.4104 95.0021 29.421C94.9892 29.4631 94.971 29.5489 94.971 29.6971C94.971 30.1045 95.0381 30.3213 95.0911 30.4289ZM95.1422 37.5435C93.8332 37.5435 92.5946 37.277 91.4608 36.7516C90.2425 36.1864 89.2532 35.3184 88.5202 34.1713C87.787 33.0244 87.4151 31.6257 87.4151 30.0146C87.4151 29.9956 87.4153 29.9768 87.4158 29.9579C87.4607 28.4017 87.8326 27.036 88.5213 25.8985C89.2212 24.7416 90.1791 23.8416 91.368 23.2241C92.5138 22.6288 93.7927 22.3268 95.1689 22.3268C96.7533 22.3268 98.126 22.6569 99.249 23.308C100.367 23.9564 101.232 24.7978 101.821 25.809L102.097 26.2864C102.648 27.2409 102.648 28.4268 102.096 29.3812C101.997 29.5518 101.883 29.7109 101.756 29.8572C101.822 29.9335 101.883 30.0132 101.941 30.0963C102.523 30.9284 102.661 31.9918 102.312 32.9407C102.184 33.2867 102.024 33.632 101.837 33.9672C101.247 35.0172 100.374 35.8845 99.2407 36.5462C98.1068 37.208 96.7279 37.5435 95.1422 37.5435Z" fill="#F1EDE4"/>
<path d="M29.3357 27.4234C28.8917 27.4234 28.7297 27.5096 28.7127 27.5195C28.6193 27.5735 28.5819 27.6213 28.5521 27.6805C28.4839 27.8166 28.448 28.0227 28.448 28.2769C28.448 28.6814 28.4994 29.232 28.7442 29.5578C28.784 29.6108 28.9915 29.6888 29.4021 29.6888C29.5854 29.6888 29.7285 29.6492 29.8734 29.5573C29.8894 29.5246 29.9234 29.4396 29.9481 29.2719C29.9922 28.9717 30.1026 28.6957 30.2632 28.4575C30.1115 28.2326 30.0044 27.9733 29.9558 27.6915C29.9373 27.5844 29.9152 27.5232 29.902 27.4935C29.8421 27.471 29.6755 27.4234 29.3357 27.4234ZM29.1381 37.5435C27.5827 37.5435 26.1124 37.2275 24.768 36.6045C23.339 35.9416 22.1784 34.9229 21.3178 33.5762C20.4571 32.23 20.0205 30.5795 20.0205 28.6711C20.0205 28.6522 20.0208 28.6333 20.0213 28.6144C20.0746 26.7654 20.5133 25.1478 21.3254 23.8067C22.1485 22.4459 23.2747 21.3877 24.6719 20.6621C26.0262 19.9584 27.5402 19.6016 29.1713 19.6016C31.0535 19.6016 32.6775 19.9898 33.9982 20.7555C35.3139 21.5185 36.3299 22.5052 37.0183 23.6883L37.3602 24.2798C37.9695 25.334 37.9692 26.5924 37.3596 27.6462C37.1764 27.963 36.9493 28.2415 36.6886 28.476C36.8743 28.645 37.0427 28.8355 37.1894 29.0454C37.8223 29.951 37.9731 31.1079 37.5928 32.1401C37.4434 32.546 37.2553 32.9522 37.0341 33.347C36.345 34.5751 35.3198 35.592 33.9865 36.3703C32.6527 37.1488 31.0215 37.5435 29.1381 37.5435Z" fill="#F1EDE4"/>
<path d="M107.98 37.2526C106.03 37.2526 104.444 35.6689 104.444 33.7224V21.5738C104.444 20.4845 105.329 19.6016 106.42 19.6016H108.492C110.485 19.6016 112.106 21.2199 112.106 23.2092V30.1594H116.571C117.663 30.1594 118.547 31.0423 118.547 32.1316V35.2803C118.547 36.3696 117.663 37.2526 116.571 37.2526H107.98Z" fill="#F1EDE4"/>
<path d="M121.978 37.5435C120.546 37.5435 119.345 37.1778 118.411 36.4567C117.497 35.7517 116.847 34.7706 116.48 33.541C116.179 32.5341 116.027 31.3473 116.027 30.0145C116.027 28.686 116.178 27.494 116.477 26.472C116.839 25.2349 117.479 24.2403 118.381 23.5163C119.323 22.762 120.532 22.3798 121.978 22.3798C122.886 22.3798 123.651 22.5049 124.309 22.7613C124.637 22.5214 125.04 22.3798 125.477 22.3798H127.344C129.509 22.3798 131.27 24.138 131.27 26.2991V35.3066C131.27 36.3959 130.385 37.2789 129.294 37.2789H126.061C125.644 37.2789 125.249 37.1483 124.923 36.9191C124.761 36.998 124.589 37.0725 124.408 37.1432C123.719 37.4125 122.925 37.5435 121.978 37.5435Z" fill="#F1EDE4"/>
<path d="M131.017 37.279C129.926 37.279 129.041 36.396 129.041 35.3067V21.5738C129.041 20.4845 129.926 19.6015 131.017 19.6015H133.615C135.318 19.6015 136.703 20.9844 136.703 22.6841V22.8987C137.073 22.5185 137.584 22.3005 138.121 22.3005H142.573C143.359 22.3005 144.07 22.7653 144.384 23.4843C144.698 24.2032 144.556 25.0397 144.021 25.6146L140.844 29.0319L144.295 34.1839C144.701 34.789 144.739 35.5676 144.396 36.2097C144.052 36.8517 143.382 37.2525 142.653 37.2525H138.279C137.626 37.2525 137.014 36.9297 136.646 36.3901L136.501 36.1771C136.179 36.8299 135.506 37.279 134.728 37.279H131.017Z" fill="#F1EDE4"/>
<path d="M148.723 37.5435C147.014 37.5435 145.571 37.1687 144.436 36.4293C143.307 35.6944 142.462 34.7219 141.926 33.5395C141.442 32.4735 141.174 31.3391 141.129 30.1691C141.129 30.1636 141.129 30.1581 141.129 30.1526C141.083 28.6151 141.373 27.2405 141.991 26.0671C142.628 24.855 143.548 23.9074 144.725 23.2518C145.859 22.6203 147.16 22.3004 148.59 22.3004C149.952 22.3004 151.203 22.595 152.308 23.1759C153.456 23.7804 154.369 24.6493 155.024 25.7591C155.672 26.8578 156 28.1558 156 29.6179V30.3057C156 30.8786 155.755 31.3942 155.365 31.7545C155.627 32.6453 155.508 33.5989 155.01 34.4181L154.993 34.4445C154.395 35.4187 153.542 36.1921 152.458 36.7452C151.421 37.2749 150.164 37.5435 148.723 37.5435Z" fill="#F1EDE4"/>
<path d="M87.6492 27.5355C87.0854 27.5355 86.536 27.2943 86.1538 26.8525L85.8112 26.8554C85.8112 26.8554 84.6453 26.8624 84.6414 26.8624C83.9269 26.8624 83.255 26.5849 82.7493 26.081C82.2426 25.5761 81.9636 24.9045 81.9636 24.1898V24.0599C81.9636 23.5627 82.1516 23.0839 82.4903 22.7193L85.7447 19.2143C86.1185 18.8115 86.6437 18.5826 87.1937 18.5826C87.5237 18.5826 87.8518 18.6652 88.1417 18.8227C89.0563 19.3197 89.6245 20.2741 89.6245 21.3133V25.5631C89.6245 26.3917 89.1058 27.1319 88.3261 27.4159C88.1048 27.4964 87.8758 27.5355 87.6492 27.5355Z" fill="#F1EDE4"/>
<path d="M43.1114 32.5283C43.7116 32.5283 44.1491 32.4092 44.4235 32.1711C44.6971 31.933 44.8693 31.6201 44.9401 31.2318C45.0107 30.8439 45.046 30.4471 45.046 30.0411C45.046 29.6177 45.0107 29.2167 44.9401 28.8371C44.8693 28.4579 44.6971 28.1536 44.4235 27.9243C44.1491 27.6951 43.7116 27.5802 43.1114 27.5802C42.5102 27.5802 42.0731 27.6993 41.7991 27.9375C41.5251 28.1757 41.3529 28.4799 41.2824 28.8504C41.2115 29.2207 41.1764 29.6177 41.1764 30.0411C41.1764 30.4644 41.2115 30.8659 41.2824 31.245C41.3529 31.6245 41.5251 31.933 41.7991 32.1711C42.0731 32.4092 42.5102 32.5283 43.1114 32.5283ZM41.5474 35.5713C40.5576 35.5713 39.7715 35.3463 39.1884 34.8964C38.6052 34.4468 38.1898 33.8075 37.9425 32.9782C37.6949 32.1492 37.5716 31.1615 37.5716 30.0146C37.5716 28.8681 37.6949 27.8713 37.9425 27.0246C38.1898 26.1778 38.6052 25.5209 39.1884 25.0532C39.7715 24.586 40.5576 24.3522 41.5474 24.3522C42.2716 24.3522 42.8548 24.4537 43.297 24.6564C43.7384 24.8594 44.0829 25.0929 44.3305 25.3576C44.5779 25.6222 44.7985 25.9575 44.9933 26.363H45.046V24.3522H47.6414C48.3162 24.3522 48.8632 24.8982 48.8632 25.5718V35.3067H45.6293L45.046 33.8249H44.9933C45.0107 33.8249 44.9668 33.9134 44.8606 34.0895C44.7546 34.2659 44.5732 34.4689 44.3172 34.6981C44.0609 34.9275 43.7076 35.1306 43.2571 35.3067C42.8063 35.4828 42.2365 35.5713 41.5474 35.5713Z" fill="#88907B"/>
<path d="M55.5161 35.5712C55.3924 35.5712 55.1318 35.558 54.7341 35.5315C54.3367 35.5051 53.8859 35.4257 53.3822 35.2935C52.8786 35.1612 52.3883 34.9453 51.9111 34.6451C51.4343 34.3453 51.0406 33.9353 50.7318 33.4147C50.5929 33.1814 50.4853 32.917 50.4089 32.6215C50.2471 31.996 50.745 31.3906 51.392 31.3906H53.6607C53.6607 31.4082 53.6649 31.4963 53.674 31.655C53.6827 31.8139 53.7358 31.9903 53.8331 32.1844C53.93 32.3787 54.0981 32.5507 54.3367 32.7002C54.5753 32.8504 54.9329 32.9252 55.4102 32.9252C55.8166 32.9252 56.1126 32.8722 56.298 32.7665C56.4835 32.6606 56.6029 32.5461 56.656 32.4224C56.7088 32.2993 56.7355 32.2021 56.7355 32.1314C56.7355 31.8668 56.5851 31.655 56.2847 31.4963C55.9843 31.3376 55.5956 31.1921 55.1187 31.0597C54.6415 30.9275 54.1332 30.7779 53.5945 30.6098C53.055 30.4426 52.5475 30.2221 52.0702 29.9485C51.5933 29.6751 51.2043 29.318 50.9042 28.8768C50.6035 28.4361 50.4534 27.8712 50.4534 27.1833C50.4534 26.0546 50.8732 25.2344 51.7126 24.7224C52.5514 24.211 53.6078 23.9551 54.8801 23.9551C55.6751 23.9551 56.3997 24.0477 57.0533 24.2331C57.707 24.4182 58.2728 24.6919 58.7501 25.0532C59.2269 25.4151 59.6022 25.8649 59.8762 26.4027L60.1052 26.8551C60.4329 27.503 59.9613 28.2682 59.2342 28.2682H56.9741C56.9741 27.9685 56.921 27.7171 56.8151 27.5141C56.7088 27.3114 56.5631 27.1528 56.3776 27.0377C56.1921 26.9233 55.9886 26.8393 55.7681 26.7864C55.5468 26.7334 55.3129 26.7071 55.0656 26.7071C54.5529 26.7071 54.2174 26.791 54.0583 26.9585C53.8992 27.1263 53.8197 27.2983 53.8197 27.4744C53.8197 27.7918 53.9741 28.0432 54.2835 28.2285C54.5927 28.4137 54.99 28.577 55.4762 28.7179C55.9622 28.8594 56.4836 29.009 57.0403 29.1678C57.5968 29.3267 58.1177 29.5342 58.604 29.7897C59.0899 30.0456 59.4876 30.3809 59.7971 30.7952C60.1058 31.2099 60.2609 31.7437 60.2609 32.396C60.2609 33.084 60.0707 33.6619 59.6908 34.1292C59.3108 34.5967 58.7675 34.954 58.0606 35.2007C57.3537 35.4476 56.5056 35.5712 55.5161 35.5712Z" fill="#88907B"/>
<path d="M66.3568 35.3067C65.2967 35.3067 64.457 35.0598 63.8387 34.5657C63.2201 34.0721 62.911 33.1726 62.911 31.8668V26.5218H66.3568V32.4754H68.9013V35.3067H66.3568ZM61.3737 24.8355V24.3521C61.6918 24.3521 61.9742 24.3215 62.2219 24.2593C62.4691 24.1978 62.6858 24.0742 62.8712 23.889C63.0567 23.7037 63.1981 23.426 63.2953 23.0556C63.3922 22.6851 63.441 22.1915 63.441 21.5738H66.3568V24.3521H68.8218V24.8355C68.8218 25.9568 67.9113 26.8657 66.7881 26.8657H63.4074C62.2842 26.8657 61.3737 25.9568 61.3737 24.8355Z" fill="#88907B"/>
<path d="M76.0054 32.5283C76.6056 32.5283 77.043 32.4092 77.3175 32.1711C77.5911 31.933 77.7633 31.6201 77.8341 31.2318C77.9046 30.8439 77.94 30.4471 77.94 30.0411C77.94 29.6177 77.9046 29.2167 77.8341 28.8371C77.7633 28.4579 77.5911 28.1536 77.3175 27.9243C77.043 27.6951 76.6056 27.5802 76.0054 27.5802C75.4042 27.5802 74.9671 27.6993 74.693 27.9375C74.419 28.1757 74.2468 28.4799 74.1764 28.8504C74.1056 29.2207 74.0704 29.6177 74.0704 30.0411C74.0704 30.4644 74.1056 30.8659 74.1764 31.245C74.2468 31.6245 74.419 31.933 74.693 32.1711C74.9671 32.4092 75.4042 32.5283 76.0054 32.5283ZM74.4413 35.5713C73.4515 35.5713 72.6655 35.3463 72.0824 34.8964C71.4991 34.4468 71.0837 33.8075 70.8365 32.9782C70.5888 32.1492 70.4656 31.1615 70.4656 30.0146C70.4656 28.8681 70.5888 27.8713 70.8365 27.0246C71.0837 26.1778 71.4991 25.5209 72.0824 25.0532C72.6655 24.586 73.4515 24.3522 74.4413 24.3522C75.1656 24.3522 75.7488 24.4537 76.1909 24.6564C76.6323 24.8594 76.9769 25.0929 77.2245 25.3576C77.4719 25.6222 77.6924 25.9575 77.8873 26.363H77.94V24.3522H80.5354C81.2102 24.3522 81.7571 24.8982 81.7571 25.5718V35.3067H78.5232L77.94 33.8249H77.8873C77.9046 33.8249 77.8608 33.9134 77.7546 34.0895C77.6486 34.2659 77.4671 34.4689 77.2112 34.6981C76.9548 34.9275 76.6016 35.1306 76.1511 35.3067C75.7003 35.4828 75.1305 35.5713 74.4413 35.5713Z" fill="#88907B"/>
<path d="M83.7712 33.9949V27.2867C83.7712 26.9587 84.0375 26.6928 84.3661 26.6928H86.3635C86.9812 26.6928 87.4821 27.1927 87.4821 27.8094V35.3066H85.0852C84.3596 35.3066 83.7712 34.7194 83.7712 33.9949Z" fill="#88907B"/>
<path d="M95.1422 35.5712C94.1176 35.5712 93.1678 35.3681 92.2928 34.9626C91.4183 34.557 90.7158 33.9398 90.1858 33.1105C89.6558 32.2814 89.3907 31.2495 89.3907 30.0145C89.4258 28.7973 89.6995 27.7655 90.2122 26.9188C90.7245 26.0719 91.4137 25.4237 92.2798 24.9738C93.1454 24.5241 94.1089 24.299 95.169 24.299C96.4054 24.299 97.4354 24.5373 98.2569 25.0135C99.0783 25.4899 99.6966 26.0852 100.112 26.7997L100.385 27.2721C100.818 28.0206 100.277 28.9562 99.4112 28.9562H97.3686C97.2804 28.4448 97.0685 28.0611 96.7329 27.8052C96.3968 27.5496 95.9195 27.4215 95.3012 27.4215C94.7713 27.4215 94.3381 27.5186 94.0026 27.7125C93.6667 27.9067 93.4151 28.1715 93.2473 28.5063C93.0792 28.8416 92.9953 29.2385 92.9953 29.6971C92.9953 30.5265 93.1811 31.1878 93.5522 31.6816C93.9231 32.1757 94.5239 32.4224 95.3548 32.4224C95.8313 32.4224 96.2644 32.2901 96.6534 32.0255C97.0417 31.761 97.2804 31.3289 97.3686 30.729H99.3707C100.164 30.729 100.731 31.5163 100.458 32.2599C100.365 32.5101 100.25 32.7582 100.112 33.0046C99.6966 33.7455 99.0743 34.3586 98.2435 34.8436C97.4127 35.3285 96.3794 35.5712 95.1422 35.5712Z" fill="#88907B"/>
<path d="M29.1381 35.5712C27.8658 35.5712 26.6864 35.3191 25.6 34.8155C24.5139 34.3118 23.6416 33.5454 22.9835 32.5155C22.3253 31.486 21.9962 30.2047 21.9962 28.6711C22.0398 27.1596 22.3796 25.8782 23.0163 24.8268C23.6524 23.7752 24.5081 22.9703 25.5838 22.4117C26.6585 21.8532 27.855 21.5737 29.1713 21.5737C30.7068 21.5737 31.9858 21.8696 33.0059 22.461C34.0259 23.0526 34.7936 23.7918 35.3098 24.679L35.6489 25.2657C36.1862 26.1952 35.5143 27.3569 34.4392 27.3569H31.9028C31.7933 26.7217 31.5301 26.2453 31.1134 25.9275C30.696 25.6102 30.1034 25.4511 29.3357 25.4511C28.6775 25.4511 28.1396 25.5717 27.723 25.8124C27.306 26.0537 26.9934 26.3825 26.7852 26.7982C26.5765 27.2146 26.4722 27.7075 26.4722 28.2769C26.4722 29.3067 26.703 30.1281 27.1636 30.7412C27.6243 31.3548 28.3704 31.6611 29.4021 31.6611C29.9938 31.6611 30.5317 31.4969 31.0148 31.1683C31.4969 30.8398 31.7933 30.3033 31.9028 29.5582H34.3889C35.3745 29.5582 36.0788 30.5359 35.7385 31.4593C35.6241 31.77 35.4812 32.0782 35.3098 32.384C34.7936 33.3041 34.0209 34.0656 32.9893 34.6677C31.9576 35.2698 30.6744 35.5712 29.1381 35.5712Z" fill="#88907B"/>
<path d="M106.42 33.7021V32.1316H116.571V35.2803H108.001C107.128 35.2803 106.42 34.5737 106.42 33.7021ZM106.42 33.7224V21.5737H108.492C109.397 21.5737 110.131 22.306 110.131 23.2092V35.2803H107.98C107.118 35.2803 106.42 34.5828 106.42 33.7224Z" fill="#88907B"/>
<path d="M123.542 32.5283C124.143 32.5283 124.58 32.4092 124.854 32.1711C125.128 31.9332 125.3 31.6202 125.371 31.2319C125.441 30.8439 125.477 30.4473 125.477 30.0413C125.477 29.6178 125.441 29.2169 125.371 28.8372C125.3 28.4579 125.128 28.1536 124.854 27.9244C124.58 27.6953 124.143 27.5802 123.542 27.5802C122.941 27.5802 122.504 27.6993 122.23 27.9375C121.956 28.1757 121.784 28.4799 121.713 28.8506C121.642 29.2209 121.607 29.6178 121.607 30.0413C121.607 30.4646 121.642 30.8659 121.713 31.245C121.784 31.6245 121.956 31.9332 122.23 32.1711C122.504 32.4092 122.941 32.5283 123.542 32.5283ZM121.978 35.5713C120.989 35.5713 120.202 35.3463 119.619 34.8963C119.036 34.447 118.621 33.8077 118.374 32.9784C118.126 32.1494 118.002 31.1615 118.002 30.0146C118.002 28.8683 118.126 27.8714 118.374 27.0247C118.621 26.178 119.036 25.5211 119.619 25.0534C120.202 24.586 120.989 24.3522 121.978 24.3522C122.703 24.3522 123.286 24.4539 123.728 24.6564C124.169 24.8595 124.514 25.0931 124.761 25.3576C125.009 25.6222 125.23 25.9575 125.424 26.3632H125.477V24.3522H127.344C128.421 24.3522 129.294 25.2238 129.294 26.2991V35.3067H126.06L125.477 33.8251H125.424C125.441 33.8251 125.398 33.9135 125.292 34.0897C125.186 34.2661 125.004 34.4689 124.748 34.6981C124.492 34.9277 124.139 35.1306 123.688 35.3067C123.237 35.4828 122.668 35.5713 121.978 35.5713Z" fill="#88907B"/>
<path d="M134.675 32.7665V28.7181L138.121 24.2727H142.573L134.675 32.7665ZM137.14 27.0511L142.653 35.2803H138.279L134.436 29.6442L137.14 27.0511ZM134.728 35.3066H131.017V21.5737H133.615C134.23 21.5737 134.728 22.071 134.728 22.6841V35.3066Z" fill="#88907B"/>
<path d="M150.313 28.8239C150.295 28.5063 150.234 28.2418 150.128 28.0302C150.022 27.8184 149.845 27.6332 149.598 27.4745C149.35 27.3156 148.988 27.2362 148.511 27.2362C148.034 27.2362 147.663 27.3156 147.398 27.4745C147.133 27.6332 146.951 27.8184 146.854 28.0302C146.757 28.2418 146.69 28.5063 146.655 28.8239H150.313ZM148.723 35.5712C147.398 35.5712 146.328 35.3067 145.516 34.7775C144.703 34.2484 144.106 33.5648 143.727 32.7268C143.346 31.8891 143.139 31.0113 143.104 30.0939C143.068 28.8946 143.28 27.8581 143.74 26.985C144.199 26.1116 144.848 25.4417 145.688 24.974C146.527 24.507 147.495 24.2728 148.59 24.2728C149.633 24.2728 150.565 24.4889 151.387 24.9209C152.209 25.3537 152.853 25.9662 153.322 26.7602C153.79 27.5538 154.024 28.5063 154.024 29.6179V30.3058H146.602C146.602 31.0821 146.792 31.6466 147.172 31.9993C147.552 32.3522 148.042 32.5283 148.643 32.5283C149.156 32.5283 149.567 32.4092 149.876 32.171C150.185 31.9332 150.366 31.6289 150.419 31.2583H152.074C153.173 31.2583 153.89 32.4575 153.321 33.3948C153.317 33.4015 153.313 33.4081 153.308 33.4148C152.902 34.0763 152.319 34.6014 151.559 34.989C150.799 35.3771 149.854 35.5712 148.723 35.5712Z" fill="#88907B"/>
<path d="M87.6488 21.3134V25.5631L87.5941 25.4982C87.2347 25.1019 86.7214 24.8765 86.1876 24.8798L85.794 24.8833L84.6476 24.8901C84.2574 24.8935 83.9393 24.5792 83.9393 24.1898V24.0599L87.1936 20.555H87.1971C87.4675 20.7018 87.6488 20.9854 87.6488 21.3134Z" fill="#88907B"/>
<path d="M61.5797 45.6468H62.5744C62.8047 45.6468 63.0229 45.6378 63.2282 45.6198C63.4336 45.6018 63.6013 45.5442 63.7308 45.4472C63.8606 45.3501 63.9256 45.1865 63.9256 44.956C63.9256 44.7259 63.8623 44.5641 63.7364 44.4705C63.6101 44.3771 63.4446 44.3213 63.2391 44.3031C63.0337 44.2853 62.8121 44.2761 62.5744 44.2761H61.5797V45.6468ZM61.569 43.1538H62.5203C62.7003 43.1538 62.8804 43.1449 63.0607 43.1268C63.2408 43.1091 63.3921 43.0587 63.5148 42.9757C63.6372 42.8931 63.6986 42.751 63.6986 42.5495C63.6986 42.3553 63.6426 42.2187 63.5309 42.1396C63.4192 42.0605 63.2733 42.0136 63.0932 41.9992C62.9129 41.985 62.722 41.9776 62.5203 41.9776H61.569V43.1538ZM60.0878 46.8446V40.7689H62.7148C62.8588 40.7689 63.0353 40.7743 63.2445 40.7852C63.4535 40.7959 63.6697 40.8248 63.8931 40.8714C64.1164 40.9184 64.3256 40.9993 64.5201 41.1142C64.7146 41.2295 64.8731 41.3877 64.9958 41.5892C65.1182 41.7905 65.1796 42.0496 65.1796 42.3662C65.1796 42.5964 65.1326 42.8086 65.0389 43.0028C64.9452 43.1969 64.7778 43.3573 64.5362 43.483C64.2947 43.6091 63.9434 43.6865 63.4823 43.7151V43.7583C64.0084 43.7727 64.4155 43.8446 64.704 43.9739C64.9919 44.1035 65.1938 44.2709 65.3093 44.4758C65.4244 44.6809 65.4823 44.9167 65.4823 45.1826C65.4823 45.5137 65.4173 45.7854 65.2878 45.9976C65.158 46.2097 64.9868 46.3736 64.7742 46.4885C64.5616 46.6038 64.3311 46.6864 64.0822 46.7366C63.8336 46.7871 63.5885 46.8176 63.3473 46.8285C63.1057 46.8391 62.8949 46.8446 62.7148 46.8446H60.0878Z" fill="#5A5A5A"/>
<path d="M69.3073 45.7008C69.5739 45.7008 69.7722 45.6468 69.9017 45.5388C70.0316 45.4308 70.1162 45.2925 70.1558 45.1234C70.1954 44.9544 70.2154 44.7834 70.2154 44.6107C70.2154 44.431 70.1954 44.2584 70.1558 44.0928C70.1162 43.9273 70.0316 43.789 69.9017 43.6772C69.7722 43.5659 69.5739 43.51 69.3073 43.51C69.0406 43.51 68.8406 43.5659 68.7073 43.6772C68.574 43.789 68.4874 43.9273 68.4478 44.0928C68.4082 44.2584 68.3885 44.431 68.3885 44.6107C68.3885 44.7834 68.4082 44.9544 68.4478 45.1234C68.4874 45.2925 68.574 45.4308 68.7073 45.5388C68.8406 45.6468 69.0406 45.7008 69.3073 45.7008ZM69.3073 46.9526C68.7811 46.9526 68.3415 46.8536 67.9885 46.6559C67.6353 46.4579 67.3723 46.1863 67.1993 45.841C67.0263 45.4957 66.9398 45.1036 66.9398 44.6648C66.9398 44.2188 67.0263 43.8229 67.1993 43.4775C67.3723 43.1323 67.6353 42.8609 67.9885 42.6629C68.3415 42.4652 68.7811 42.3662 69.3073 42.3662C70.0785 42.3662 70.664 42.5765 71.064 42.9973C71.4639 43.4184 71.6639 43.974 71.6639 44.6648C71.6639 45.0965 71.5792 45.4848 71.4098 45.8301C71.2404 46.1756 70.9828 46.4492 70.6369 46.6504C70.2911 46.8517 69.8479 46.9526 69.3073 46.9526Z" fill="#5A5A5A"/>
<path d="M75.3807 45.7114C75.6255 45.7114 75.8039 45.6629 75.9156 45.5658C76.0273 45.4688 76.0975 45.3411 76.1265 45.1827C76.1552 45.0244 76.1697 44.8627 76.1697 44.6972C76.1697 44.5245 76.1552 44.3609 76.1265 44.206C76.0975 44.0514 76.0273 43.9273 75.9156 43.8337C75.8039 43.7404 75.6255 43.6935 75.3807 43.6935C75.1357 43.6935 74.9573 43.7421 74.8456 43.8392C74.7337 43.9363 74.6633 44.0604 74.6346 44.2114C74.6059 44.3625 74.5914 44.5245 74.5914 44.6972C74.5914 44.8698 74.6059 45.0335 74.6346 45.1881C74.6633 45.3429 74.7337 45.4688 74.8456 45.5658C74.9573 45.6629 75.1357 45.7114 75.3807 45.7114ZM74.7428 46.9526C74.339 46.9526 74.0185 46.8607 73.7805 46.6774C73.5429 46.4938 73.3736 46.2331 73.2727 45.895C73.1716 45.5568 73.1214 45.154 73.1214 44.6863C73.1214 44.2188 73.1716 43.8121 73.2727 43.4669C73.3736 43.1214 73.5429 42.8535 73.7805 42.6629C74.0185 42.4723 74.339 42.3768 74.7428 42.3768C75.0381 42.3768 75.2761 42.4183 75.4563 42.501C75.6364 42.5838 75.7768 42.6791 75.8779 42.7871C75.9787 42.8947 76.0689 43.0316 76.1481 43.197H76.1697V42.3768H77.7264V46.8446H76.4076L76.1697 46.2402H76.1481C76.1552 46.2402 76.1375 46.2762 76.094 46.3482C76.0508 46.4202 75.9768 46.5029 75.8724 46.5964C75.7678 46.69 75.6239 46.7728 75.44 46.8446C75.2564 46.9164 75.0239 46.9526 74.7428 46.9526Z" fill="#5A5A5A"/>
<path d="M81.2162 46.8446C80.7837 46.8446 80.4414 46.7439 80.1892 46.5425C79.9368 46.3412 79.8109 45.9743 79.8109 45.4417V43.2619H81.2162V45.6899H82.2538V46.8446H81.2162ZM79.7595 43.402C79.4416 43.402 79.1839 43.1448 79.1839 42.8274V42.3769C79.3134 42.3769 79.4287 42.3643 79.5297 42.3392C79.6306 42.3141 79.7188 42.2637 79.7945 42.1882C79.8701 42.1126 79.9278 41.9991 79.9675 41.8481C80.0071 41.697 80.027 41.4957 80.027 41.2437H81.2162V42.3769H82.2215V42.8274C82.2215 43.1448 81.9638 43.402 81.6459 43.402H79.7595Z" fill="#5A5A5A"/>
<path d="M86.8481 43.3805H87.6049C87.9362 43.3805 88.2065 43.3769 88.4157 43.3698C88.6246 43.3627 88.7812 43.3142 88.8858 43.224C88.9902 43.1343 89.0427 42.9704 89.0427 42.733C89.0427 42.4668 88.9796 42.2816 88.8533 42.1772C88.7274 42.0731 88.5435 42.0136 88.3021 41.9991C88.0606 41.9849 87.7633 41.9776 87.4103 41.9776H86.8481V43.3805ZM85.3346 46.8446V40.7689H87.8102C88.3436 40.7689 88.8011 40.8302 89.183 40.9524C89.565 41.0749 89.8606 41.2691 90.0696 41.5352C90.2786 41.8014 90.3832 42.1576 90.3832 42.6035C90.3832 42.9704 90.3291 43.2818 90.221 43.537C90.1128 43.7925 89.9578 43.9886 89.756 44.125C89.5544 44.2619 89.3164 44.3301 89.0427 44.3301C89.2155 44.3301 89.3508 44.3645 89.4481 44.4327C89.5453 44.5011 89.621 44.5911 89.6751 44.7024C89.7292 44.8141 89.7704 44.9309 89.7994 45.0531C89.8281 45.1756 89.8571 45.2944 89.8857 45.4093C89.9145 45.5247 89.9562 45.6217 90.0101 45.7008C90.0641 45.7799 90.1453 45.8265 90.2535 45.841C90.3614 45.8554 90.5056 45.8265 90.6857 45.7545V46.5749C90.484 46.7476 90.2606 46.8608 90.0155 46.9147C89.7704 46.9688 89.538 46.9543 89.3183 46.8716C89.0984 46.789 88.9164 46.6305 88.7724 46.3968C88.6283 46.1631 88.5561 45.8448 88.5561 45.4417C88.5561 45.305 88.549 45.1772 88.5345 45.0586C88.52 44.9399 88.4839 44.8357 88.4264 44.7457C88.3687 44.6558 88.2786 44.5821 88.1561 44.5245C88.0335 44.467 87.8679 44.431 87.6589 44.4165C87.4497 44.4021 87.1795 44.4094 86.8481 44.4381V46.8446H85.3346Z" fill="#5A5A5A"/>
<path d="M95.0854 44.2006C95.0781 44.0713 95.0529 43.9633 95.0097 43.8768C94.9665 43.7906 94.8944 43.7151 94.7936 43.6502C94.6925 43.5855 94.545 43.5531 94.3502 43.5531C94.1557 43.5531 94.0044 43.5855 93.8962 43.6502C93.7882 43.7151 93.7142 43.7906 93.6746 43.8768C93.635 43.9633 93.608 44.0713 93.5934 44.2006H95.0854ZM94.4369 46.9526C93.8962 46.9526 93.4602 46.8446 93.1288 46.6288C92.7971 46.4129 92.5539 46.1342 92.399 45.7924C92.2439 45.4507 92.1595 45.0929 92.145 44.7187C92.1305 44.2295 92.2169 43.8067 92.4045 43.4506C92.5917 43.0946 92.8566 42.8212 93.199 42.6305C93.5413 42.4398 93.9358 42.3445 94.3827 42.3445C94.8078 42.3445 95.1881 42.4327 95.5233 42.609C95.8583 42.7854 96.1213 43.0353 96.3123 43.3589C96.5032 43.6827 96.5989 44.0713 96.5989 44.5245V44.8049H93.5719C93.5719 45.1218 93.6492 45.3517 93.8043 45.4957C93.9592 45.6398 94.1593 45.7114 94.4043 45.7114C94.6133 45.7114 94.7808 45.6629 94.907 45.5658C95.0329 45.4688 95.107 45.3446 95.1286 45.1935H96.588C96.5664 45.5102 96.4727 45.8034 96.3069 46.0731C96.141 46.3428 95.9033 46.5569 95.5935 46.715C95.2834 46.8733 94.898 46.9526 94.4369 46.9526Z" fill="#5A5A5A"/>
<path d="M98.0562 46.8446V42.3769H99.3642L99.6129 43.197H99.6345C99.7137 43.0316 99.8038 42.8947 99.9047 42.7871C100.005 42.6791 100.148 42.5838 100.332 42.501C100.516 42.4183 100.752 42.3769 101.04 42.3769C101.364 42.3769 101.625 42.4346 101.824 42.5495C102.022 42.6649 102.173 42.8141 102.278 42.9973C102.382 43.1808 102.452 43.3788 102.488 43.5911C102.524 43.8032 102.544 44.0083 102.548 44.206C102.551 44.404 102.553 44.5712 102.553 44.7079V46.8446H101.083V44.6972C101.083 44.539 101.07 44.3841 101.045 44.233C101.02 44.082 100.957 43.9542 100.856 43.8498C100.755 43.7457 100.582 43.6936 100.337 43.6936C100.099 43.6936 99.9298 43.7457 99.829 43.8498C99.7281 43.9542 99.667 44.082 99.6454 44.233C99.6238 44.3841 99.6129 44.539 99.6129 44.6972V46.8446H98.0562Z" fill="#5A5A5A"/>
<path d="M106.043 46.8446C105.611 46.8446 105.268 46.7439 105.016 46.5425C104.764 46.3412 104.638 45.9743 104.638 45.4417V43.2619H106.043V45.6899H107.081V46.8446H106.043ZM104.011 42.7408V42.3769C104.14 42.3769 104.256 42.3643 104.357 42.3392C104.458 42.3141 104.546 42.2637 104.621 42.1882C104.697 42.1126 104.755 41.9991 104.794 41.8481C104.834 41.697 104.854 41.4957 104.854 41.2437H106.043V42.3769H107.049V42.7408C107.049 43.106 106.752 43.402 106.386 43.402H104.673C104.307 43.402 104.011 43.106 104.011 42.7408Z" fill="#5A5A5A"/>
<path d="M110.798 45.7114C111.042 45.7114 111.221 45.6629 111.332 45.5658C111.444 45.4688 111.514 45.3411 111.543 45.1827C111.572 45.0244 111.587 44.8627 111.587 44.6972C111.587 44.5245 111.572 44.3609 111.543 44.206C111.514 44.0514 111.444 43.9273 111.332 43.8337C111.221 43.7404 111.042 43.6935 110.798 43.6935C110.552 43.6935 110.374 43.7421 110.262 43.8392C110.151 43.9363 110.08 44.0604 110.051 44.2114C110.023 44.3625 110.008 44.5245 110.008 44.6972C110.008 44.8698 110.023 45.0335 110.051 45.1881C110.08 45.3429 110.151 45.4688 110.262 45.5658C110.374 45.6629 110.552 45.7114 110.798 45.7114ZM110.16 46.9526C109.756 46.9526 109.435 46.8607 109.197 46.6774C108.96 46.4938 108.79 46.2331 108.69 45.895C108.588 45.5568 108.538 45.154 108.538 44.6863C108.538 44.2188 108.588 43.8121 108.69 43.4669C108.79 43.1214 108.96 42.8535 109.197 42.6629C109.435 42.4723 109.756 42.3768 110.16 42.3768C110.455 42.3768 110.693 42.4183 110.873 42.501C111.053 42.5838 111.194 42.6791 111.295 42.7871C111.396 42.8947 111.486 43.0316 111.565 43.197H111.587V42.3768H112.35C112.788 42.3768 113.143 42.7315 113.143 43.1691V46.8446H111.824L111.587 46.2402H111.565C111.572 46.2402 111.554 46.2762 111.511 46.3482C111.468 46.4202 111.394 46.5029 111.289 46.5964C111.185 46.69 111.041 46.7728 110.857 46.8446C110.673 46.9164 110.441 46.9526 110.16 46.9526Z" fill="#5A5A5A"/>
<path d="M114.601 46.8446V41.4478C114.601 41.0728 114.905 40.7689 115.281 40.7689H116.071V46.1576C116.071 46.537 115.763 46.8446 115.383 46.8446H114.601Z" fill="#5A5A5A"/>
<path d="M8.75422 44.4437C8.75422 44.4437 15.3376 52.0561 24.2107 52.267C28.7176 52.267 33.6471 48.8927 33.788 50.3689C33.9287 51.8452 28.5286 53.9541 28.5286 53.9541C28.5286 53.9541 40.9903 53.5797 46.5437 45.4014C46.5437 45.4014 42.4395 46.7134 41.846 46.8539C41.2525 46.9946 38.1165 46.5025 38.1165 46.5025L37.4998 43.8311C37.4998 43.8311 33.9992 44.8153 33.6471 44.8856" fill="#88907B"/>
<path d="M50.9093 45.51C50.9182 46.0701 50.7019 46.5908 50.4025 47.073C50.2356 47.3413 50.043 47.5976 49.8493 47.8422C47.8727 50.3302 45.4515 52.4652 42.7339 54.116C34.679 59.0092 24.0566 59.2676 15.6757 54.9552C7.29386 50.6428 1.37665 41.9688 0.217908 32.6271C-0.746231 24.8563 1.51792 16.7177 6.43641 10.6175C11.3539 4.51818 18.8774 0.559819 26.7051 0.0549155C34.5318 -0.449001 42.5393 2.53703 48.0495 8.1097C48.4782 8.54261 48.8911 8.99229 49.2685 9.47057C50.1724 10.6165 50.8846 11.9576 50.9389 13.4418C50.9864 14.7474 50.5389 16.1132 49.4601 16.9169C48.2737 17.8015 46.6053 17.7995 45.2163 17.2857C43.8176 16.768 42.6647 15.8075 41.5139 14.8894C41.4013 15.4278 41.0407 15.8962 40.5853 16.2049C39.8227 16.7226 38.7884 16.8706 37.8964 16.6723C36.4324 16.3479 35.2104 15.3775 33.8768 14.6912C31.3815 13.4063 28.3834 13.1508 25.6915 13.9358C25.6896 13.9358 25.6886 13.9368 25.6866 13.9368C25.2905 14.0315 24.9121 14.1399 24.5486 14.2612C24.0132 14.4387 23.5133 14.6439 23.0461 14.8687C18.8428 16.8883 17.3106 20.5291 17.119 21.0212C17.1081 21.0488 17.1022 21.0666 17.0992 21.0735C17.0992 21.0607 17.1012 21.0488 17.1032 21.036C17.3788 18.333 19.6015 15.7533 19.6015 15.7533C20.5369 14.7237 21.7085 13.7849 23.0807 13.0631C24.3411 12.3984 25.7715 11.9172 27.3472 11.714C27.5941 11.6825 27.845 11.6578 28.0989 11.6401C30.041 11.505 32.1195 11.9192 33.8749 12.7268C34.7165 13.1144 35.8782 13.709 37.3896 14.6084C38.0623 15.0087 38.6027 15.1192 38.9959 14.9358C39.3574 14.7671 39.5935 14.4072 39.7614 14.0601C39.9679 13.634 40.1684 13.1804 40.1516 12.6972C40.1457 12.5542 40.122 12.4112 40.1329 12.2682C40.1665 11.8501 40.6456 11.5563 41.017 11.7939C41.8616 12.2199 42.4079 13.1025 43.0944 13.7238C43.8353 14.3944 44.6661 15.0008 45.5957 15.3825C46.1499 15.6103 46.7445 15.7542 47.3461 15.7414C48.0989 15.7256 48.573 15.4574 48.8398 14.8963C49.5757 13.3491 48.6402 11.5326 47.5971 10.3946C46.8176 9.54355 45.9839 8.7428 45.1017 7.99826C42.808 6.06346 40.1872 4.51719 37.3738 3.46301C34.4942 2.38516 31.425 1.83293 28.3498 1.83293C13.7603 1.83293 1.89132 14.0433 1.89132 29.0513C1.89132 44.0594 13.7603 56.2688 28.3498 56.2688C36.8848 56.2688 44.4893 52.0895 49.3297 45.6165C49.1539 45.2585 48.8052 44.9735 48.1414 44.9735C46.3573 44.9735 40.8639 48.9575 37.9537 47.5513C36.1696 46.4734 36.6853 45.9577 36.7801 45.1146C36.874 44.2704 25.6066 50.6912 17.6248 48.9575C14.5763 48.3057 11.6108 47.4468 9.20436 44.9647C8.61462 44.3552 8.05846 43.6492 7.5428 42.8237C5.31619 39.4531 3.59141 34.4879 3.64772 28.0386C3.71785 20.0489 8.09303 14.5068 8.09303 14.5068C9.95216 11.5927 12.4623 9.12444 15.4456 7.36714C19.7062 4.85544 24.8252 3.7056 29.7516 3.99848C34.0952 4.25784 38.578 5.77255 42.2469 8.09688C43.4935 8.88579 44.6878 9.79403 45.6984 10.8729C46.3188 11.5346 47.0231 12.357 47.2256 13.2692C47.5072 14.5344 45.8476 13.6133 45.409 13.3323C44.8291 12.9615 44.2868 12.5365 43.7612 12.0937C43.3058 11.7091 42.8969 11.2792 42.402 10.9409C42.0918 10.7289 41.7638 10.5445 41.423 10.3877C41.3855 10.3729 41.346 10.3551 41.3055 10.3364C41.1425 10.2664 40.9765 10.2013 40.8086 10.1441C40.5814 10.0662 40.3453 10.0001 40.1062 9.94392C39.0591 9.76247 38.3439 10.0938 38.5415 10.6322C39.4394 12.6183 38.3903 12.8757 38.3903 12.8757C38.2757 12.925 38.1443 12.9004 38.0238 12.8678C37.5981 12.7524 37.2326 12.5355 36.8621 12.3028C35.0632 11.1786 33.1083 10.2565 31.015 9.84826C30.5478 9.75754 30.0776 9.69443 29.6064 9.65893C29.6064 9.65893 29.6044 9.65892 29.6014 9.65794C27.3946 9.48832 25.17 9.90644 23.1192 10.7782C20.4263 11.9221 18.0308 13.849 16.3613 16.2542C14.8094 18.4908 13.8443 21.0685 13.4126 23.7528C12.9503 26.6254 13.0975 29.6213 13.787 32.4515C14.9605 37.2688 17.9448 41.9569 22.5028 43.8316C22.6914 43.9095 22.8841 43.9825 23.0787 44.0505C27.1259 45.4627 31.6117 44.4992 35.6451 43.0486C36.38 42.7843 37.1427 42.5003 37.9191 42.5792C38.6965 42.6581 39.4868 43.232 39.5184 44.0111C39.5441 44.6461 39.0887 45.3276 39.4167 45.8719C39.7091 46.3571 40.4164 46.3512 40.9637 46.2003C42.2449 45.8453 43.3463 45.0445 44.4794 44.3473C45.6115 43.6501 46.8749 43.0279 48.2036 43.1018C49.5313 43.1758 50.8886 44.1827 50.9093 45.51Z" fill="#F1EDE4"/>
<path d="M22.5029 43.8316C20.1617 43.9016 10.9678 39.3318 10.9678 29.0001C10.9678 20.1426 15.3894 12.4812 23.1193 10.7782C20.4264 11.9221 18.0309 13.849 16.3615 16.2542C14.8095 18.4908 13.8444 21.0685 13.4127 23.7528C12.9504 26.6254 13.0976 29.6213 13.7871 32.4515C14.9607 37.2688 17.945 41.9569 22.5029 43.8316Z" fill="#88907B"/>
<path d="M23.119 10.7782C23.119 10.7782 26.429 9.59523 29.105 11.5167C29.105 11.5167 25.044 11.3527 21.9217 13.7542L26.3351 12.9461L29.4512 12.4784L35.9928 13.8066C35.9928 13.8066 31.7458 11.9733 30.1613 11.6808C30.1613 11.6808 30.743 10.7125 35.7011 12.2783C43.3065 14.6803 32.334 9.39603 32.1514 9.34338C31.9687 9.29062 27.6731 8.64036 27.5146 8.69312C27.3562 8.74578 25.2964 9.16765 25.2964 9.16765" fill="#F1EDE4"/>
</svg>
